<svg xmlns="http://www.w3.org/2000/svg" viewBox="0 0 40.26 47.1"><defs><style>.cls-1{fill:#fff;}</style></defs><title>d-logo</title><g id="Layer_2" data-name="Layer 2"><g id="Layer_1-2" data-name="Layer 1"><path class="cls-1" d="M39.32,14.72c-3-9.41-11.91-12.83-13.38-13.37a22.88,22.88,0,0,0-12-1,1.68,1.68,0,0,0-1.32,1.18L.07,45A1.67,1.67,0,0,0,1.7,47.1h.24c7.88-.12,16.34-.24,23.88-4.25A26.34,26.34,0,0,0,37.44,31.6C38.42,29.68,41.92,22.8,39.32,14.72ZM29.32,27a11.91,11.91,0,0,1-5.16,5.19c-3.35,1.85-7.11,1.91-10.6,2H12.44l5.78-20.69a1.31,1.31,0,0,1,1.06-.95,9.82,9.82,0,0,1,4.93.51,10.05,10.05,0,0,1,5.94,6.18A10.6,10.6,0,0,1,29.32,27Z"/></g></g></svg>