<svg xmlns="http://www.w3.org/2000/svg" viewBox="0 0 544.55 90.54"><defs><style>.cls-1{fill:#fff;}</style></defs><title>infinity</title><g id="Layer_2" data-name="Layer 2"><g id="Layer_1-2" data-name="Layer 1"><path class="cls-1" d="M32.92.12l-.09,1c-.06.66-.15,1.63-.26,2.86s-.28,2.71-.46,4.42-.37,3.64-.62,5.75-.51,4.38-.8,6.8-.62,4.95-1,7.58-.71,5.35-1.07,8.11S27.89,42.21,27.5,45s-.83,5.61-1.23,8.38-.85,5.48-1.25,8.11-.84,5.17-1.23,7.59-.79,4.69-1.15,6.79-.71,4-1,5.75-.59,3.2-.82,4.43-.42,2.19-.55,2.85l-.2,1s0-.35.09-1,.15-1.63.27-2.85.28-2.72.45-4.43.37-3.64.62-5.75.52-4.38.8-6.79.62-5,.95-7.59.71-5.35,1.08-8.11.77-5.57,1.16-8.38.83-5.61,1.24-8.38.84-5.48,1.25-8.11.83-5.17,1.22-7.58.8-4.7,1.15-6.8.71-4,1-5.75S32,5.2,32.17,4l.55-2.86Z"/><path class="cls-1" d="M30.06.12l-.09,1c-.06.66-.15,1.63-.27,2.86s-.28,2.71-.45,4.42-.37,3.64-.62,5.75-.52,4.38-.8,6.8-.62,4.95-.95,7.58-.71,5.35-1.08,8.11S25,42.21,24.64,45s-.83,5.61-1.24,8.38-.84,5.48-1.25,8.11-.83,5.17-1.22,7.59-.79,4.69-1.15,6.79-.71,4-1,5.75-.59,3.2-.81,4.43-.43,2.19-.55,2.85l-.2,1s0-.35.09-1,.15-1.63.26-2.85.28-2.72.46-4.43.37-3.64.62-5.75.51-4.38.79-6.79.63-5,1-7.59.71-5.35,1.07-8.11.78-5.57,1.17-8.38.83-5.61,1.23-8.38.85-5.48,1.25-8.11.84-5.17,1.23-7.58.79-4.7,1.15-6.8.71-4,1-5.75.59-3.2.82-4.42l.55-2.86Z"/><path class="cls-1" d="M27.19.12l-.09,1C27,1.78,27,2.75,26.83,4s-.28,2.71-.45,4.42S26,12,25.76,14.15s-.52,4.38-.8,6.8-.62,4.95-.95,7.58-.71,5.35-1.08,8.11-.77,5.57-1.16,8.38-.83,5.61-1.23,8.38-.85,5.48-1.25,8.11-.84,5.17-1.23,7.59-.79,4.69-1.14,6.79-.72,4-1,5.75-.59,3.2-.82,4.43-.42,2.19-.55,2.85l-.2,1s0-.35.09-1,.15-1.63.27-2.85.28-2.72.45-4.43.37-3.64.62-5.75.52-4.38.8-6.79.62-5,.95-7.59.71-5.35,1.08-8.11.77-5.57,1.16-8.38.83-5.61,1.24-8.38.84-5.48,1.25-8.11.83-5.17,1.22-7.58.79-4.7,1.15-6.8.71-4,1-5.75.59-3.2.81-4.42L27,1.12Z"/><path class="cls-1" d="M24.32.12l-.09,1c-.06.66-.15,1.63-.26,2.86s-.28,2.71-.46,4.42-.37,3.64-.62,5.75-.51,4.38-.8,6.8-.62,4.95-.95,7.58-.7,5.35-1.07,8.11S19.29,42.21,18.9,45s-.82,5.61-1.23,8.38-.84,5.48-1.25,8.11-.83,5.17-1.22,7.59-.79,4.69-1.15,6.79-.71,4-1,5.75-.59,3.2-.81,4.43-.43,2.19-.55,2.85l-.2,1s0-.35.09-1,.15-1.63.26-2.85.28-2.72.46-4.43.37-3.64.62-5.75.51-4.38.79-6.79.63-5,1-7.59.7-5.35,1.07-8.11.78-5.57,1.17-8.38.82-5.61,1.23-8.38.85-5.48,1.25-8.11.84-5.17,1.23-7.58.79-4.7,1.14-6.8.72-4,1-5.75.59-3.2.81-4.42l.56-2.86C24.26.47,24.32.12,24.32.12Z"/><path class="cls-1" d="M21.46.12l-.09,1c-.06.66-.15,1.63-.27,2.86s-.28,2.71-.45,4.42S20.28,12,20,14.15s-.52,4.38-.8,6.8-.62,4.95-.95,7.58-.71,5.35-1.08,8.11S16.43,42.21,16,45s-.83,5.61-1.24,8.38-.84,5.48-1.24,8.11-.84,5.17-1.23,7.59-.79,4.69-1.14,6.79-.71,4-1,5.75-.59,3.2-.82,4.43-.42,2.19-.55,2.85l-.2,1s0-.35.09-1,.15-1.63.27-2.85.28-2.72.45-4.43S9.77,78,10,75.89s.52-4.38.8-6.79.62-5,.95-7.59.71-5.35,1.08-8.11S13.62,47.83,14,45s.83-5.61,1.24-8.38.84-5.48,1.25-8.11.83-5.17,1.22-7.58.79-4.7,1.15-6.8.71-4,1-5.75.59-3.2.82-4.42l.55-2.86Z"/><path class="cls-1" d="M18.59.12l-.09,1c-.06.66-.15,1.63-.27,2.86S18,6.69,17.78,8.4s-.37,3.64-.62,5.75-.51,4.38-.8,6.8-.62,4.95-.95,7.58-.71,5.35-1.07,8.11-.78,5.57-1.17,8.38-.82,5.61-1.23,8.38-.84,5.48-1.25,8.11-.83,5.17-1.22,7.59-.79,4.69-1.15,6.79-.71,4-1,5.75-.59,3.2-.81,4.43-.42,2.19-.55,2.85l-.2,1s0-.35.09-1,.15-1.63.26-2.85.28-2.72.46-4.43.37-3.64.62-5.75.51-4.38.79-6.79.63-5,1-7.59.7-5.35,1.07-8.11.78-5.57,1.17-8.38.82-5.61,1.23-8.38.84-5.48,1.25-8.11.83-5.17,1.22-7.58.8-4.7,1.15-6.8.71-4,1-5.75.59-3.2.81-4.42l.55-2.86Z"/><path class="cls-1" d="M15.72.12l-.09,1c-.06.66-.15,1.63-.26,2.86s-.28,2.71-.46,4.42-.37,3.64-.62,5.75-.51,4.38-.79,6.8-.62,4.95-.95,7.58-.71,5.35-1.08,8.11S10.7,42.21,10.31,45s-.83,5.61-1.24,8.38-.84,5.48-1.24,8.11S7,66.68,6.6,69.1s-.79,4.69-1.14,6.79-.71,4-1,5.75-.59,3.2-.82,4.43-.42,2.19-.55,2.85l-.2,1s0-.35.09-1,.16-1.63.27-2.85.28-2.72.45-4.43S4,78,4.29,75.89s.52-4.38.8-6.79.62-5,1-7.59.71-5.35,1.08-8.11S7.89,47.83,8.28,45s.83-5.61,1.23-8.38.85-5.48,1.25-8.11S11.6,23.36,12,21s.79-4.7,1.15-6.8.71-4,1-5.75S14.75,5.2,15,4l.55-2.86C15.66.47,15.72.12,15.72.12Z"/><path class="cls-1" d="M12.86.12l-.09,1c-.06.66-.15,1.63-.27,2.86s-.28,2.71-.45,4.42-.37,3.64-.62,5.75-.52,4.38-.8,6.8-.62,4.95-1,7.58S9,33.88,8.61,36.64,7.83,42.21,7.44,45s-.82,5.61-1.23,8.38S5.37,58.88,5,61.51s-.83,5.17-1.22,7.59S3,73.79,2.59,75.89s-.71,4-1,5.75S1,84.84.75,86.07.33,88.26.2,88.92l-.2,1s0-.35.09-1,.15-1.63.27-2.85.27-2.72.45-4.43.37-3.64.62-5.75.51-4.38.79-6.79.63-5,.95-7.59.71-5.35,1.08-8.11S5,47.83,5.41,45s.83-5.61,1.24-8.38.84-5.48,1.25-8.11S8.73,23.36,9.12,21s.79-4.7,1.15-6.8.71-4,1-5.75.58-3.2.81-4.42l.55-2.86Z"/><path class="cls-1" d="M122,.16l-.09,1c-.06.65-.15,1.62-.26,2.85s-.28,2.71-.46,4.42-.37,3.64-.61,5.75-.52,4.38-.8,6.8-.62,5-1,7.58-.71,5.35-1.07,8.12-.78,5.56-1.17,8.37-.82,5.61-1.23,8.38-.84,5.48-1.24,8.11-.84,5.17-1.22,7.59-.8,4.69-1.15,6.79-.71,4-1,5.75-.58,3.2-.81,4.43-.42,2.19-.55,2.85l-.2,1s0-.36.09-1,.15-1.63.27-2.85.27-2.72.45-4.43.37-3.64.62-5.75.51-4.38.79-6.79.62-5,1-7.59.71-5.35,1.08-8.11.77-5.57,1.16-8.38.83-5.61,1.23-8.37.85-5.49,1.25-8.12.83-5.17,1.22-7.58.79-4.7,1.15-6.8.71-4,1-5.75.59-3.2.82-4.42l.54-2.85Z"/><path class="cls-1" d="M119.11.16l-.09,1c-.06.65-.15,1.62-.27,2.85s-.27,2.71-.45,4.42-.37,3.64-.62,5.75-.51,4.38-.79,6.8-.62,5-1,7.58-.71,5.35-1.08,8.12-.77,5.56-1.16,8.37-.82,5.61-1.23,8.38-.84,5.48-1.25,8.11-.83,5.17-1.22,7.59-.79,4.69-1.14,6.79-.71,4-1,5.75-.59,3.2-.81,4.43-.42,2.19-.55,2.85l-.2,1s0-.36.09-1,.15-1.63.26-2.85.28-2.72.46-4.43.37-3.64.61-5.75.52-4.38.8-6.79.62-5,1-7.59.71-5.35,1.07-8.11.78-5.57,1.17-8.38.82-5.61,1.23-8.37.84-5.49,1.25-8.12S115,23.4,115.38,21s.79-4.7,1.14-6.8.71-4,1-5.75.59-3.2.81-4.42l.55-2.85Z"/><path class="cls-1" d="M116.25.16l-.09,1c-.07.65-.16,1.62-.27,2.85s-.28,2.71-.45,4.42-.37,3.64-.62,5.75-.52,4.38-.8,6.8-.62,5-1,7.58-.7,5.35-1.07,8.12-.77,5.56-1.16,8.37-.83,5.61-1.23,8.38-.84,5.48-1.25,8.11-.83,5.17-1.22,7.59-.79,4.69-1.15,6.79-.7,4-1,5.75-.59,3.2-.81,4.43-.43,2.19-.55,2.85l-.2,1s0-.36.09-1,.15-1.63.26-2.85.28-2.72.45-4.43.37-3.64.62-5.75.52-4.38.8-6.79.62-5,1-7.59.7-5.35,1.07-8.11.77-5.57,1.16-8.38.83-5.61,1.24-8.37.84-5.49,1.24-8.12.84-5.17,1.22-7.58.8-4.7,1.15-6.8.71-4,1-5.75.58-3.2.81-4.42l.55-2.85Z"/><path class="cls-1" d="M113.38.16l-.09,1c-.06.65-.15,1.62-.26,2.85s-.28,2.71-.46,4.42-.37,3.64-.61,5.75-.52,4.38-.8,6.8-.62,5-1,7.58-.71,5.35-1.07,8.12-.77,5.56-1.16,8.37-.83,5.61-1.24,8.38-.84,5.48-1.24,8.11-.83,5.17-1.22,7.59-.79,4.69-1.15,6.79-.71,4-1,5.75-.59,3.2-.82,4.43-.42,2.19-.55,2.85-.19,1-.19,1,0-.36.08-1,.16-1.63.27-2.85.28-2.72.45-4.43.37-3.64.62-5.75.51-4.38.8-6.79.62-5,.94-7.59.71-5.35,1.08-8.11.77-5.57,1.16-8.38.83-5.61,1.23-8.37.85-5.49,1.25-8.12.83-5.17,1.22-7.58.79-4.7,1.15-6.8.71-4,1-5.75.59-3.2.81-4.42l.55-2.85Z"/><path class="cls-1" d="M110.52.16l-.09,1c-.06.65-.15,1.62-.27,2.85s-.28,2.71-.45,4.42-.37,3.64-.62,5.75-.51,4.38-.8,6.8-.61,5-.94,7.58-.71,5.35-1.08,8.12-.77,5.56-1.16,8.37-.82,5.61-1.23,8.38-.84,5.48-1.24,8.11-.84,5.17-1.22,7.59-.8,4.69-1.15,6.79-.71,4-1,5.75-.58,3.2-.81,4.43S98,88.3,97.88,89l-.2,1s0-.36.09-1,.15-1.63.27-2.85.28-2.72.45-4.43.37-3.64.62-5.75.51-4.38.79-6.79.62-5,.95-7.59.71-5.35,1.07-8.11.78-5.57,1.17-8.38.82-5.61,1.23-8.37.84-5.49,1.25-8.12.83-5.17,1.22-7.58.79-4.7,1.14-6.8.71-4,1-5.75.58-3.2.81-4.42l.55-2.85Z"/><path class="cls-1" d="M107.65.16l-.09,1c-.06.65-.15,1.62-.26,2.85s-.28,2.71-.46,4.42-.36,3.64-.61,5.75-.52,4.38-.8,6.8-.62,5-1,7.58-.7,5.35-1.07,8.12-.77,5.56-1.16,8.37-.83,5.61-1.23,8.38-.84,5.48-1.25,8.11-.83,5.17-1.22,7.59-.79,4.69-1.14,6.79-.71,4-1,5.75-.59,3.2-.81,4.43S95.15,88.3,95,89l-.2,1s0-.36.09-1,.15-1.63.27-2.85.27-2.72.45-4.43.37-3.64.61-5.75.52-4.38.8-6.79.62-5,.95-7.59.71-5.35,1.07-8.11.77-5.57,1.16-8.38.83-5.61,1.24-8.37.84-5.49,1.24-8.12.84-5.17,1.22-7.58.79-4.7,1.15-6.8.71-4,1-5.75.59-3.2.82-4.42l.54-2.85Z"/><path class="cls-1" d="M104.79.16l-.09,1c-.06.65-.15,1.62-.27,2.85s-.27,2.71-.45,4.42-.37,3.64-.62,5.75-.51,4.38-.79,6.8-.62,5-.95,7.58-.71,5.35-1.07,8.12-.77,5.56-1.16,8.37-.83,5.61-1.23,8.38-.85,5.48-1.25,8.11-.83,5.17-1.22,7.59-.79,4.69-1.14,6.79-.71,4-1,5.75-.59,3.2-.81,4.43-.43,2.19-.55,2.85L92,90s0-.36.09-1,.15-1.63.26-2.85.28-2.72.46-4.43.36-3.64.61-5.75.52-4.38.8-6.79.62-5,.95-7.59.7-5.35,1.07-8.11.77-5.57,1.16-8.38.83-5.61,1.23-8.37.85-5.49,1.25-8.12.83-5.17,1.22-7.58.79-4.7,1.15-6.8.7-4,1-5.75.59-3.2.81-4.42l.55-2.85Z"/><path class="cls-1" d="M101.93.16l-.09,1c-.07.65-.15,1.62-.27,2.85s-.28,2.71-.45,4.42-.37,3.64-.62,5.75-.51,4.38-.8,6.8-.62,5-.94,7.58-.71,5.35-1.08,8.12-.77,5.56-1.16,8.37-.82,5.61-1.23,8.38-.84,5.48-1.24,8.11-.83,5.17-1.22,7.59-.79,4.69-1.15,6.79-.71,4-1,5.75-.59,3.2-.81,4.43S89.42,88.3,89.3,89l-.2,1s0-.36.09-1,.15-1.63.26-2.85.28-2.72.45-4.43.37-3.64.62-5.75.51-4.38.8-6.79.61-5,.94-7.59.71-5.35,1.08-8.11.77-5.57,1.16-8.38.82-5.61,1.23-8.37.84-5.49,1.25-8.12S97.81,23.4,98.2,21s.79-4.7,1.14-6.8.71-4,1-5.75.58-3.2.81-4.42l.55-2.85Z"/><path class="cls-1" d="M65.09.16l-.09,1c-.06.65-.15,1.62-.27,2.85s-.28,2.71-.45,4.42-.37,3.64-.61,5.75-.52,4.38-.8,6.8-.62,5-.94,7.58-.71,5.35-1.07,8.12-.77,5.56-1.16,8.37-.83,5.61-1.23,8.38-.84,5.48-1.24,8.11S56.4,66.72,56,69.14s-.79,4.69-1.14,6.79-.71,4-1,5.75-.58,3.2-.81,4.43-.42,2.19-.55,2.85l-.2,1s0-.36.09-1,.15-1.63.27-2.85.27-2.72.45-4.43.37-3.64.61-5.75.51-4.38.8-6.79.61-5,.94-7.59.71-5.35,1.07-8.11.77-5.57,1.16-8.38.83-5.61,1.23-8.37.84-5.49,1.25-8.12S61,23.4,61.36,21s.79-4.7,1.15-6.8.7-4,1-5.75.59-3.2.81-4.42l.55-2.85Z"/><path class="cls-1" d="M62.22.16l-.09,1c-.06.65-.15,1.62-.26,2.85s-.28,2.71-.45,4.42-.37,3.64-.62,5.75S60.29,18.57,60,21s-.62,5-.95,7.58-.7,5.35-1.07,8.12-.77,5.56-1.16,8.37-.82,5.61-1.22,8.38-.84,5.48-1.25,8.11-.83,5.17-1.21,7.59-.79,4.69-1.15,6.79-.7,4-1,5.75-.59,3.2-.81,4.43-.42,2.19-.55,2.85l-.2,1s0-.36.09-1,.15-1.63.26-2.85.28-2.72.46-4.43.36-3.64.61-5.75.51-4.38.79-6.79.62-5,.95-7.59.71-5.35,1.07-8.11.77-5.57,1.16-8.38.82-5.61,1.23-8.37.84-5.49,1.24-8.12S58.11,23.4,58.5,21s.79-4.7,1.14-6.8.71-4,1-5.75.58-3.2.81-4.42L62,1.17Z"/><path class="cls-1" d="M59.36.16l-.09,1c-.06.65-.15,1.62-.27,2.85s-.27,2.71-.45,4.42-.36,3.64-.61,5.75-.51,4.38-.8,6.8-.61,5-.94,7.58-.71,5.35-1.07,8.12-.77,5.56-1.16,8.37-.82,5.61-1.23,8.38-.84,5.48-1.24,8.11-.83,5.17-1.22,7.59-.78,4.69-1.14,6.79-.71,4-1,5.75-.59,3.2-.81,4.43-.42,2.19-.55,2.85l-.2,1s0-.36.09-1,.15-1.63.26-2.85.28-2.72.45-4.43.37-3.64.62-5.75.51-4.38.79-6.79.62-5,.95-7.59.7-5.35,1.07-8.11.77-5.57,1.16-8.38.82-5.61,1.22-8.37.84-5.49,1.25-8.12.83-5.17,1.22-7.58.78-4.7,1.14-6.8.71-4,1-5.75.59-3.2.81-4.42l.55-2.85Z"/><path class="cls-1" d="M56.49.16l-.08,1c-.07.65-.16,1.62-.27,2.85s-.28,2.71-.45,4.42-.37,3.64-.62,5.75-.51,4.38-.79,6.8-.62,5-.94,7.58-.71,5.35-1.07,8.12-.77,5.56-1.16,8.37-.82,5.61-1.23,8.38-.84,5.48-1.24,8.11-.83,5.17-1.22,7.59-.79,4.69-1.14,6.79-.71,4-1,5.75-.59,3.2-.81,4.43S44,88.3,43.9,89l-.2,1s0-.36.09-1,.15-1.63.26-2.85.28-2.72.45-4.43.37-3.64.62-5.75.51-4.38.79-6.79.62-5,.94-7.59.71-5.35,1.07-8.11.77-5.57,1.16-8.38.83-5.61,1.23-8.37.84-5.49,1.24-8.12.84-5.17,1.22-7.58.79-4.7,1.15-6.8.7-4,1-5.75.58-3.2.81-4.42l.55-2.85C56.43.51,56.49.16,56.49.16Z"/><path class="cls-1" d="M53.63.16l-.09,1c-.06.65-.15,1.62-.26,2.85S53,6.73,52.82,8.44s-.36,3.64-.61,5.75-.51,4.38-.79,6.8-.62,5-1,7.58-.7,5.35-1.07,8.12-.77,5.56-1.15,8.37-.83,5.61-1.23,8.38-.84,5.48-1.24,8.11-.83,5.17-1.22,7.59-.79,4.69-1.14,6.79-.71,4-1,5.75-.58,3.2-.81,4.43S41.16,88.3,41,89s-.19,1-.19,1,0-.36.08-1,.16-1.63.27-2.85.28-2.72.45-4.43.37-3.64.61-5.75.52-4.38.8-6.79.61-5,.94-7.59.71-5.35,1.07-8.11.77-5.57,1.16-8.38.82-5.61,1.23-8.37.84-5.49,1.24-8.12.83-5.17,1.22-7.58.79-4.7,1.14-6.8.71-4,1-5.75.59-3.2.81-4.42l.55-2.85Z"/><path class="cls-1" d="M50.77.16l-.09,1c-.06.65-.15,1.62-.27,2.85S50.14,6.73,50,8.44s-.37,3.64-.61,5.75-.52,4.38-.8,6.8-.61,5-.94,7.58-.71,5.35-1.07,8.12-.77,5.56-1.16,8.37-.82,5.61-1.22,8.38-.84,5.48-1.25,8.11-.83,5.17-1.21,7.59-.79,4.69-1.15,6.79-.7,4-1,5.75-.58,3.2-.81,4.43S38.3,88.3,38.17,89L38,90s0-.36.09-1,.15-1.63.27-2.85.27-2.72.45-4.43.36-3.64.61-5.75.51-4.38.79-6.79.62-5,1-7.59.7-5.35,1.07-8.11.77-5.57,1.16-8.38.82-5.61,1.23-8.37.83-5.49,1.24-8.12.83-5.17,1.22-7.58.78-4.7,1.14-6.8.71-4,1-5.75S49.8,5.24,50,4l.55-2.85Z"/><path class="cls-1" d="M47.9.16l-.09,1c-.06.65-.15,1.62-.26,2.85s-.28,2.71-.45,4.42-.37,3.64-.62,5.75S46,18.57,45.69,21s-.62,5-.94,7.58-.71,5.35-1.07,8.12-.77,5.56-1.16,8.37-.82,5.61-1.23,8.38-.84,5.48-1.24,8.11-.83,5.17-1.22,7.59-.78,4.69-1.14,6.79-.7,4-1,5.75-.59,3.2-.81,4.43-.42,2.19-.55,2.85l-.2,1s0-.36.09-1,.15-1.63.26-2.85.28-2.72.46-4.43.36-3.64.61-5.75.51-4.38.79-6.79.62-5,1-7.59.7-5.35,1.07-8.11.77-5.57,1.15-8.38.83-5.61,1.23-8.37.84-5.49,1.24-8.12.83-5.17,1.22-7.58.79-4.7,1.14-6.8.71-4,1-5.75.58-3.2.81-4.42l.54-2.85Z"/><path class="cls-1" d="M45,.16l-.09,1c-.06.65-.15,1.62-.27,2.85s-.27,2.71-.45,4.42-.36,3.64-.61,5.75-.51,4.38-.79,6.8-.62,5-.95,7.58-.7,5.35-1.07,8.12-.77,5.56-1.15,8.37-.83,5.61-1.23,8.38-.84,5.48-1.24,8.11-.83,5.17-1.22,7.59-.79,4.69-1.14,6.79-.71,4-1,5.75-.59,3.2-.81,4.43-.42,2.19-.55,2.85l-.2,1s0-.36.09-1,.15-1.63.26-2.85.28-2.72.45-4.43.37-3.64.62-5.75.51-4.38.79-6.79.62-5,.94-7.59.71-5.35,1.07-8.11.77-5.57,1.16-8.38.82-5.61,1.23-8.37.84-5.49,1.24-8.12.83-5.17,1.22-7.58.79-4.7,1.14-6.8.71-4,1-5.75.59-3.2.81-4.42l.55-2.85Z"/><path class="cls-1" d="M65.11.22l.37.56c.24.37.6.89,1,1.58.88,1.37,2.13,3.33,3.57,5.72.72,1.2,1.51,2.49,2.31,3.87s1.67,2.83,2.53,4.36S76.7,19.38,77.57,21s1.79,3.24,2.68,4.87l2.62,4.91c.87,1.62,1.67,3.24,2.48,4.79s1.55,3.08,2.27,4.52,1.38,2.8,2,4.07c1.22,2.53,2.19,4.67,2.85,6.17.34.75.59,1.35.77,1.75l.26.62-.37-.56c-.24-.36-.6-.89-1-1.58-.88-1.36-2.13-3.33-3.57-5.72C87.78,43.65,87,42.36,86.19,41s-1.67-2.83-2.52-4.35S81.9,33.54,81,31.93l-2.68-4.88-2.61-4.91c-.87-1.62-1.67-3.24-2.48-4.79S71.7,14.27,71,12.83,69.6,10,69,8.76c-1.22-2.53-2.19-4.66-2.86-6.17-.34-.74-.59-1.34-.76-1.75Z"/><path class="cls-1" d="M64.58,5.55l.37.56c.23.36.6.89,1,1.58.88,1.37,2.11,3.33,3.55,5.72.72,1.19,1.49,2.49,2.29,3.87s1.66,2.83,2.51,4.36,1.75,3.07,2.62,4.68l2.66,4.88,2.59,4.91c.87,1.62,1.66,3.24,2.46,4.79S86.2,44,86.91,45.42s1.37,2.8,2,4.07C90.08,52,91,54.15,91.7,55.65c.34.75.58,1.35.76,1.76l.26.62-.37-.56c-.23-.37-.59-.89-1-1.58-.87-1.37-2.11-3.33-3.54-5.72-.72-1.2-1.5-2.49-2.3-3.87s-1.65-2.83-2.5-4.36-1.76-3.07-2.63-4.69S78.59,34,77.7,32.38l-2.59-4.92c-.87-1.61-1.66-3.24-2.46-4.79s-1.54-3.07-2.25-4.51-1.37-2.81-2-4.07c-1.21-2.53-2.17-4.67-2.83-6.17-.34-.75-.58-1.35-.76-1.75Z"/><path class="cls-1" d="M63.59,10.87l.37.56c.24.37.6.89,1,1.58.88,1.37,2.13,3.34,3.57,5.73.73,1.19,1.51,2.48,2.31,3.87s1.67,2.83,2.53,4.35,1.77,3.08,2.64,4.69,1.79,3.24,2.68,4.87l2.62,4.92c.87,1.61,1.67,3.23,2.48,4.79s1.55,3.07,2.27,4.51,1.37,2.81,2,4.07c1.22,2.53,2.18,4.67,2.85,6.17.34.75.59,1.35.76,1.75l.27.62-.37-.55c-.24-.37-.6-.9-1-1.58-.88-1.37-2.13-3.34-3.57-5.73-.72-1.19-1.51-2.48-2.31-3.87S83,48.79,82.15,47.27s-1.77-3.08-2.65-4.69-1.78-3.24-2.68-4.87-1.75-3.3-2.61-4.92S72.54,29.55,71.73,28s-1.55-3.07-2.27-4.51-1.38-2.81-2-4.08c-1.22-2.53-2.19-4.66-2.86-6.16-.34-.75-.59-1.35-.76-1.75Z"/><path class="cls-1" d="M63.1,16.2l.37.56c.24.36.6.89,1,1.58.89,1.37,2.13,3.33,3.58,5.72.72,1.2,1.51,2.49,2.31,3.87s1.67,2.83,2.52,4.35,1.77,3.08,2.65,4.69l2.68,4.88c.88,1.64,1.75,3.29,2.61,4.91s1.68,3.24,2.48,4.79,1.56,3.08,2.27,4.52,1.38,2.8,2,4.07c1.22,2.53,2.19,4.67,2.86,6.17.34.74.58,1.34.76,1.75l.27.62-.37-.56c-.24-.36-.61-.89-1-1.58-.89-1.37-2.13-3.33-3.57-5.72C85.76,59.63,85,58.33,84.18,57s-1.67-2.83-2.53-4.35S79.88,49.52,79,47.91,77.23,44.67,76.33,43s-1.75-3.29-2.61-4.91S72,34.88,71.24,33.33,69.68,30.25,69,28.81s-1.38-2.8-2-4.07c-1.21-2.53-2.18-4.67-2.85-6.17-.34-.74-.59-1.34-.77-1.75Z"/><path class="cls-1" d="M62.43,21.53s.12.19.37.55.6.9,1,1.58C64.72,25,66,27,67.41,29.39c.72,1.19,1.51,2.48,2.31,3.87s1.67,2.83,2.52,4.35S74,40.69,74.89,42.3s1.78,3.24,2.68,4.87l2.61,4.92c.87,1.61,1.68,3.24,2.48,4.79s1.56,3.07,2.27,4.51,1.38,2.81,2,4.08c1.22,2.53,2.19,4.66,2.85,6.16.34.75.59,1.35.77,1.75l.26.63-.37-.56c-.24-.37-.6-.89-1-1.58-.88-1.37-2.12-3.33-3.57-5.72-.72-1.2-1.5-2.49-2.31-3.87S81.83,59.45,81,57.92s-1.77-3.07-2.64-4.69l-2.68-4.87-2.61-4.92c-.87-1.61-1.68-3.24-2.48-4.79S69,35.58,68.3,34.14s-1.38-2.81-2-4.07c-1.21-2.53-2.18-4.67-2.85-6.17-.34-.75-.59-1.35-.77-1.75Z"/><path class="cls-1" d="M61.75,26.85l.38.56c.23.37.6.89,1,1.58.89,1.37,2.13,3.33,3.57,5.72.73,1.2,1.51,2.49,2.32,3.87s1.67,2.83,2.52,4.36,1.77,3.07,2.65,4.69L76.9,52.5c.87,1.65,1.75,3.29,2.61,4.91s1.67,3.24,2.48,4.8,1.55,3.07,2.27,4.51,1.38,2.8,2,4.07c1.22,2.53,2.18,4.67,2.85,6.17.34.75.59,1.35.76,1.75l.27.62-.37-.56c-.24-.36-.6-.89-1-1.58-.88-1.36-2.13-3.33-3.57-5.72-.72-1.19-1.51-2.48-2.31-3.87s-1.67-2.83-2.52-4.35-1.77-3.08-2.65-4.69S75.88,55.32,75,53.68s-1.75-3.29-2.62-4.91S70.7,45.53,69.89,44s-1.55-3.08-2.26-4.51-1.38-2.81-2-4.08c-1.21-2.53-2.19-4.66-2.85-6.16-.35-.75-.59-1.35-.77-1.76Z"/><path class="cls-1" d="M61.35,32.18l.37.56c.24.36.6.89,1,1.58.88,1.37,2.13,3.33,3.57,5.72.72,1.19,1.51,2.49,2.31,3.87s1.67,2.83,2.53,4.35,1.77,3.08,2.64,4.69,1.78,3.24,2.68,4.88,1.75,3.29,2.61,4.91,1.68,3.24,2.48,4.79S83.14,70.6,83.85,72s1.38,2.81,2,4.08c1.22,2.53,2.19,4.66,2.86,6.16.34.75.58,1.35.76,1.76l.26.62s-.12-.2-.37-.56-.6-.89-1-1.58c-.89-1.37-2.13-3.33-3.57-5.72-.73-1.19-1.51-2.49-2.31-3.87s-1.67-2.83-2.53-4.36-1.77-3.07-2.64-4.69L74.58,59c-.87-1.65-1.75-3.29-2.61-4.91s-1.68-3.24-2.48-4.8-1.55-3.07-2.27-4.51-1.38-2.81-2-4.07c-1.22-2.53-2.19-4.67-2.86-6.17-.34-.75-.59-1.35-.76-1.75Z"/><path class="cls-1" d="M60.68,37.51l.37.55c.24.37.6.89,1,1.58C63,41,64.22,43,65.66,45.37c.72,1.19,1.51,2.48,2.31,3.87s1.67,2.83,2.53,4.35,1.76,3.08,2.64,4.69,1.78,3.24,2.68,4.87,1.75,3.3,2.61,4.92,1.68,3.23,2.48,4.79,1.56,3.07,2.27,4.51,1.38,2.81,2,4.07C86.38,84,87.35,86.11,88,87.61c.34.75.59,1.35.77,1.75L89,90l-.37-.55c-.24-.37-.6-.9-1-1.58-.88-1.37-2.12-3.34-3.57-5.73-.72-1.19-1.5-2.48-2.31-3.87s-1.67-2.83-2.52-4.35-1.77-3.08-2.64-4.69l-2.68-4.87L71.3,59.42c-.87-1.62-1.68-3.24-2.48-4.79s-1.56-3.07-2.27-4.51-1.38-2.81-2-4.08c-1.22-2.53-2.19-4.66-2.86-6.16-.34-.75-.59-1.35-.76-1.75Z"/><path class="cls-1" d="M153.5.23l-.09,1-.26,2.85c-.12,1.23-.27,2.72-.45,4.43s-.36,3.64-.6,5.75-.51,4.38-.79,6.79-.61,5-.93,7.59-.7,5.35-1.06,8.11-.76,5.57-1.15,8.38-.81,5.61-1.21,8.37-.84,5.48-1.24,8.11-.82,5.18-1.2,7.59-.79,4.69-1.14,6.8-.7,4-1,5.74-.58,3.2-.81,4.43-.42,2.19-.54,2.85l-.2,1s0-.35.09-1,.15-1.62.26-2.85.27-2.72.44-4.43.36-3.64.61-5.74.51-4.39.78-6.8.61-4.95.94-7.59.7-5.34,1.06-8.11.76-5.57,1.15-8.37.81-5.62,1.21-8.38.84-5.48,1.24-8.11.82-5.18,1.2-7.59.79-4.69,1.14-6.79.7-4,1-5.75.58-3.2.81-4.43l.54-2.85Z"/><path class="cls-1" d="M150.63.23l-.08,1-.27,2.85c-.12,1.23-.27,2.72-.44,4.43s-.36,3.64-.61,5.75-.5,4.38-.78,6.79-.61,5-.94,7.59-.7,5.35-1.06,8.11-.76,5.57-1.14,8.38-.82,5.61-1.22,8.37l-1.23,8.11c-.42,2.64-.82,5.18-1.21,7.59L140.52,76c-.35,2.1-.7,4-1,5.74s-.58,3.2-.8,4.43-.42,2.19-.55,2.85-.19,1-.19,1,0-.35.08-1,.15-1.62.26-2.85.28-2.72.45-4.43.36-3.64.6-5.74.51-4.39.79-6.8.61-4.95.93-7.59.7-5.34,1.06-8.11.77-5.57,1.15-8.37.82-5.62,1.22-8.38l1.23-8.11c.42-2.63.82-5.18,1.21-7.59l1.13-6.79c.35-2.11.7-4,1-5.75s.58-3.2.8-4.43l.55-2.85C150.56.58,150.63.23,150.63.23Z"/><path class="cls-1" d="M147.77.23l-.09,1-.26,2.85c-.13,1.23-.28,2.72-.45,4.43s-.36,3.64-.6,5.75-.51,4.38-.79,6.79-.61,5-.93,7.59-.7,5.35-1.06,8.11-.76,5.57-1.15,8.38-.81,5.61-1.21,8.37S140.39,59,140,61.62s-.82,5.18-1.2,7.59S138,73.9,137.65,76s-.7,4-1,5.74-.58,3.2-.81,4.43-.42,2.19-.54,2.85l-.2,1s0-.35.09-1,.15-1.62.26-2.85.27-2.72.44-4.43.37-3.64.61-5.74.51-4.39.78-6.8.61-4.95.94-7.59.7-5.34,1.06-8.11.76-5.57,1.14-8.37.82-5.62,1.22-8.38l1.23-8.11c.42-2.63.83-5.18,1.21-7.59s.78-4.69,1.14-6.79.7-4,1-5.75.58-3.2.81-4.43l.54-2.85Z"/><path class="cls-1" d="M144.9.23l-.09,1-.26,2.85c-.12,1.23-.27,2.72-.44,4.43s-.37,3.64-.61,5.75-.51,4.38-.79,6.79-.61,5-.93,7.59-.7,5.35-1.06,8.11-.76,5.57-1.14,8.38-.82,5.61-1.22,8.37l-1.23,8.11c-.42,2.64-.82,5.18-1.21,7.59L134.79,76c-.35,2.1-.7,4-1,5.74s-.58,3.2-.8,4.43-.42,2.19-.55,2.85-.19,1-.19,1,0-.35.08-1,.15-1.62.26-2.85.28-2.72.45-4.43.36-3.64.6-5.74.51-4.39.79-6.8.61-4.95.93-7.59.7-5.34,1.06-8.11.76-5.57,1.15-8.37.81-5.62,1.22-8.38L140,28.65c.42-2.63.82-5.18,1.21-7.59l1.13-6.79c.35-2.11.7-4,1-5.75s.59-3.2.81-4.43l.54-2.85Z"/><path class="cls-1" d="M142,.23l-.08,1-.26,2.85c-.13,1.23-.28,2.72-.45,4.43s-.36,3.64-.61,5.75-.5,4.38-.78,6.79-.61,5-.94,7.59-.69,5.35-1,8.11-.77,5.57-1.15,8.38-.81,5.61-1.22,8.37-.83,5.48-1.23,8.11-.82,5.18-1.2,7.59-.78,4.69-1.14,6.8-.7,4-1,5.74-.58,3.2-.81,4.43-.41,2.19-.54,2.85l-.2,1s0-.35.09-1,.15-1.62.26-2.85.27-2.72.44-4.43.37-3.64.61-5.74.51-4.39.78-6.8.61-4.95.94-7.59.7-5.34,1.06-8.11.76-5.57,1.14-8.37.82-5.62,1.22-8.38l1.23-8.11c.42-2.63.83-5.18,1.21-7.59l1.13-6.79c.35-2.11.71-4,1-5.75s.58-3.2.8-4.43l.55-2.85C142,.58,142,.23,142,.23Z"/><path class="cls-1" d="M139.17.23l-.09,1-.26,2.85c-.12,1.23-.28,2.72-.45,4.43s-.36,3.64-.6,5.75-.51,4.38-.79,6.79-.61,5-.93,7.59-.7,5.35-1.06,8.11-.76,5.57-1.14,8.38-.82,5.61-1.22,8.37l-1.23,8.11c-.42,2.64-.82,5.18-1.21,7.59L129.06,76c-.35,2.1-.7,4-1,5.74s-.58,3.2-.8,4.43-.42,2.19-.54,2.85l-.2,1s0-.35.08-1,.15-1.62.26-2.85.28-2.72.45-4.43.36-3.64.6-5.74.51-4.39.79-6.8.61-4.95.93-7.59.7-5.34,1.06-8.11.76-5.57,1.15-8.37.81-5.62,1.21-8.38.84-5.48,1.24-8.11.82-5.18,1.2-7.59.79-4.69,1.14-6.79.7-4,1-5.75.58-3.2.81-4.43L139,1.24Z"/><path class="cls-1" d="M136.3.23l-.09,1L136,4.09c-.12,1.23-.27,2.72-.44,4.43s-.37,3.64-.61,5.75-.51,4.38-.78,6.79-.61,5-.94,7.59-.69,5.35-1.05,8.11-.77,5.57-1.15,8.38-.81,5.61-1.22,8.37-.83,5.48-1.23,8.11-.82,5.18-1.2,7.59-.78,4.69-1.14,6.8-.7,4-1,5.74-.58,3.2-.81,4.43-.41,2.19-.54,2.85l-.2,1s0-.35.09-1,.15-1.62.26-2.85.27-2.72.44-4.43.37-3.64.61-5.74.51-4.39.78-6.8.61-4.95.94-7.59.7-5.34,1.06-8.11.76-5.57,1.14-8.37.82-5.62,1.22-8.38l1.23-8.11c.42-2.63.82-5.18,1.21-7.59l1.13-6.79c.35-2.11.7-4,1-5.75s.58-3.2.8-4.43l.54-2.85Z"/><path class="cls-1" d="M133.43.23l-.08,1-.26,2.85c-.13,1.23-.28,2.72-.45,4.43s-.36,3.64-.61,5.75-.5,4.38-.78,6.79-.61,5-.93,7.59-.7,5.35-1.06,8.11-.76,5.57-1.15,8.38-.81,5.61-1.21,8.37l-1.23,8.11c-.42,2.64-.82,5.18-1.21,7.59L123.33,76c-.35,2.1-.7,4-1,5.74s-.58,3.2-.8,4.43-.42,2.19-.54,2.85l-.2,1s0-.35.09-1,.14-1.62.26-2.85.27-2.72.44-4.43.36-3.64.6-5.74.51-4.39.79-6.8.61-4.95.93-7.59.7-5.34,1.06-8.11.76-5.57,1.15-8.37.81-5.62,1.21-8.38.84-5.48,1.23-8.11.83-5.18,1.21-7.59l1.13-6.79c.35-2.11.71-4,1-5.75s.58-3.2.8-4.43l.55-2.85C133.36.58,133.43.23,133.43.23Z"/><path class="cls-1" d="M153.39,1l.66-.05L155.9.81l2.87-.17c1.11-.07,2.36-.15,3.72-.21l4.39-.17,4.9-.14L177,0l5.38,0,5.38,0L193,.12l4.85.14,4.35.17c1.34,0,2.57.13,3.66.2l2.82.18,1.81.15.64.05-.65.06-1.85.14-2.88.18c-1.11.07-2.36.15-3.72.2l-4.39.18-4.9.13L187.5,2l-5.39,0-5.38,0-5.2-.09-4.86-.14-4.34-.17c-1.35-.05-2.58-.13-3.67-.2l-2.82-.18L154,1.07Z"/><path class="cls-1" d="M153,3.87l.65-.06,1.85-.14,2.88-.18c1.11-.07,2.36-.15,3.72-.2l4.39-.17,4.9-.14,5.22-.09,5.39,0,5.38,0,5.2.09,4.86.13,4.34.18c1.35,0,2.58.13,3.67.2l2.82.18,1.81.14.64.06-.66,0-1.85.14-2.87.18c-1.11.08-2.36.16-3.72.21l-4.4.17-4.89.14-5.23.08-5.39,0-5.37,0-5.21-.08-4.85-.14-4.35-.17c-1.34-.06-2.57-.14-3.66-.21l-2.82-.18-1.81-.14Z"/><path class="cls-1" d="M152.58,6.72l.66,0,1.85-.14L158,6.35c1.11-.07,2.36-.15,3.72-.2l4.4-.18L171,5.84l5.23-.09,5.39,0,5.38,0,5.2.08L197,6l4.35.17c1.34.06,2.57.14,3.66.21l2.82.18,1.81.14.64,0-.65.06-1.85.14-2.88.18c-1.1.07-2.36.15-3.72.21l-4.39.17-4.89.14-5.23.08-5.39,0-5.38,0-5.2-.09-4.86-.13-4.34-.18c-1.35,0-2.57-.13-3.66-.2L155,6.92l-1.82-.14Z"/><path class="cls-1" d="M152.18,9.58l.66-.05,1.85-.14,2.87-.18c1.11-.07,2.36-.15,3.72-.21l4.39-.17,4.9-.14,5.22-.08,5.39,0,5.38,0,5.2.08,4.86.14L201,9c1.35.05,2.58.13,3.67.2l2.82.18,1.81.15.64.05-.66.06-1.85.14-2.87.18c-1.11.07-2.36.15-3.72.2l-4.39.18-4.9.13-5.23.09-5.38,0-5.38,0-5.2-.09-4.86-.14-4.34-.17c-1.35-.05-2.58-.13-3.67-.2l-2.82-.18-1.81-.14Z"/><path class="cls-1" d="M151.78,12.44l.65-.06,1.85-.14,2.88-.18c1.1-.07,2.36-.15,3.72-.2l4.39-.17,4.89-.14,5.23-.09,5.39,0,5.38,0,5.2.09,4.86.13,4.34.18c1.34.05,2.57.13,3.66.2l2.82.18,1.82.14.64.06-.66.05-1.85.15-2.87.17c-1.11.08-2.37.16-3.73.21l-4.39.17-4.89.14-5.23.08-5.39,0-5.38,0-5.2-.08-4.85-.14L160.71,13c-1.34-.06-2.57-.14-3.66-.21l-2.82-.18-1.81-.14Z"/><path class="cls-1" d="M151.37,15.3l.66-.06,1.85-.14,2.87-.18c1.11-.07,2.36-.15,3.72-.2l4.4-.18,4.89-.13,5.23-.09,5.38,0,5.38,0,5.2.08,4.86.14,4.34.17c1.35.06,2.58.14,3.67.21l2.82.18,1.81.14.64.06-.66,0-1.85.14-2.87.18c-1.11.07-2.36.15-3.72.21l-4.39.17-4.9.14-5.22.08-5.39,0-5.38,0-5.2-.09-4.86-.13-4.34-.18c-1.35,0-2.57-.13-3.66-.2l-2.83-.18L152,15.35Z"/><path class="cls-1" d="M151,18.15l.65,0,1.86-.14,2.87-.18c1.11-.07,2.36-.15,3.72-.21l4.39-.17,4.9-.14,5.22-.08,5.39,0,5.38,0,5.2.08,4.86.14,4.34.17c1.35.05,2.57.13,3.66.21l2.82.18,1.82.14.64,0-.66.06-1.85.14-2.87.18c-1.11.07-2.36.15-3.72.2l-4.4.18L190.3,19l-5.23.09-5.39,0-5.37,0-5.2-.09-4.86-.14-4.34-.17c-1.35-.05-2.58-.13-3.67-.2l-2.82-.18-1.81-.14Z"/><path class="cls-1" d="M150.57,21l.65-.06,1.85-.14,2.87-.18c1.11-.07,2.37-.15,3.73-.2l4.39-.17,4.89-.14,5.23-.09,5.39,0,5.37,0,5.21.09,4.85.13,4.35.18c1.34.05,2.57.13,3.66.2l2.82.18,1.81.14.64.06-.65,0-1.86.15-2.87.18c-1.11.07-2.36.15-3.72.2l-4.39.17-4.9.14-5.22.09-5.39,0-5.38,0-5.2-.08-4.85-.14-4.35-.17c-1.34-.06-2.57-.14-3.66-.21L153,21.21l-1.81-.15Z"/><path class="cls-1" d="M148.57,35.17l.53-.05,1.5-.15,2.32-.17c.89-.08,1.91-.16,3-.21l3.54-.17,4-.14,4.22-.09,4.35,0,4.34,0,4.19.09,3.92.13,3.5.18c1.08,0,2.07.13,3,.2l2.27.18,1.46.14.51.06-.53,0-1.5.15-2.32.18c-.9.07-1.91.15-3,.2l-3.55.17-3.95.14-4.22.09-4.35,0-4.34,0-4.19-.09-3.92-.14-3.5-.17c-1.08,0-2.07-.14-2.95-.21l-2.27-.17-1.46-.15Z"/><path class="cls-1" d="M148.16,38l.53-.06,1.5-.14,2.32-.18c.9-.07,1.91-.15,3-.2l3.55-.18,4-.13,4.22-.09,4.35,0,4.34,0,4.2.09,3.91.13,3.5.18c1.09,0,2.08.13,3,.2l2.27.18,1.46.14.52.06-.53,0-1.5.14-2.32.18c-.9.08-1.91.15-3,.21l-3.55.17-4,.14-4.22.08-4.35,0L167,39l-4.2-.08-3.91-.14-3.5-.18c-1.09-.05-2.07-.13-3-.2l-2.27-.18-1.46-.14Z"/><path class="cls-1" d="M147.76,40.88l.53-.05,1.5-.14,2.32-.18c.9-.07,1.91-.15,3-.2l3.55-.18,4-.13,4.22-.09,4.35,0,4.34,0,4.19.08,3.92.14,3.5.17c1.08.06,2.07.14,3,.21l2.27.18,1.46.14.51.05-.53.06-1.5.14-2.32.18c-.9.07-1.91.15-3,.2l-3.55.18-3.95.13-4.22.09-4.35,0-4.34,0-4.19-.09-3.91-.13-3.5-.18c-1.09-.05-2.08-.13-3-.2l-2.27-.18-1.46-.14Z"/><path class="cls-1" d="M147.36,43.74l.53-.05,1.49-.15,2.33-.17c.89-.07,1.91-.15,3-.21l3.55-.17,4-.14,4.22-.08,4.35,0,4.33,0,4.2.09,3.91.14,3.5.17c1.09.05,2.08.13,3,.2l2.28.18,1.45.15.52.05-.53.06-1.5.14-2.32.18c-.9.07-1.91.15-3,.2L183,44.5l-4,.13-4.22.09-4.35,0-4.34,0L162,44.63l-3.92-.14-3.5-.17c-1.08,0-2.07-.13-3-.2l-2.27-.18-1.46-.14Z"/><path class="cls-1" d="M147,46.6l.53-.06,1.5-.14,2.32-.18c.9-.07,1.91-.15,3-.2l3.55-.17,3.95-.14,4.22-.09,4.35,0,4.34,0,4.19.09,3.92.13,3.5.18c1.08,0,2.07.13,2.95.2l2.27.18,1.46.14.51.06-.53,0-1.49.14-2.33.18c-.89.08-1.91.16-3,.21l-3.55.17-4,.14-4.22.08-4.34,0-4.34,0-4.2-.08-3.91-.14-3.5-.17c-1.09-.06-2.08-.14-3-.21l-2.27-.18-1.46-.14Z"/><path class="cls-1" d="M146.55,49.45l.53-.05,1.5-.14,2.32-.18c.9-.07,1.91-.15,3-.2l3.55-.18,3.95-.13,4.22-.09,4.35,0,4.34,0,4.19.08,3.92.14,3.5.17c1.08.06,2.07.14,2.95.21l2.27.18,1.45.14.52.05-.53.06-1.5.14-2.32.18c-.9.07-1.91.15-3,.21l-3.55.17-4,.14-4.22.08-4.35,0-4.34,0-4.19-.09-3.92-.13-3.5-.18c-1.08-.05-2.07-.13-3-.2l-2.27-.18-1.46-.14Z"/><path class="cls-1" d="M146.15,52.31l.53-.05,1.49-.14,2.33-.18c.89-.07,1.91-.15,3-.21l3.55-.17,4-.14,4.22-.08,4.34,0,4.34,0,4.2.08,3.91.14,3.5.17c1.09.05,2.07.13,2.95.21l2.27.17,1.46.15.52.05-.54.06-1.49.14-2.33.18c-.89.07-1.9.15-3,.2l-3.55.18-4,.13-4.21.09-4.35,0-4.34,0-4.19-.09-3.92-.14-3.5-.17c-1.08,0-2.07-.13-3-.2l-2.27-.18-1.46-.14Z"/><path class="cls-1" d="M145.74,55.17l.53-.06,1.5-.14,2.32-.18c.9-.07,1.91-.15,3-.2l3.55-.17,3.95-.14,4.22-.09,4.35,0,4.34,0,4.19.09,3.92.13,3.5.18c1.08,0,2.07.13,2.95.2l2.27.18,1.46.14.51.06-.53,0-1.5.15-2.32.18c-.9.07-1.91.15-3,.2l-3.55.17-4,.14-4.22.08-4.35,0-4.33,0-4.2-.08-3.91-.14-3.5-.17c-1.09-.06-2.08-.14-2.95-.21l-2.27-.18-1.46-.14Z"/><path class="cls-1" d="M240.92.12l-.09,1c-.06.66-.15,1.63-.26,2.86s-.28,2.71-.46,4.42-.37,3.64-.62,5.75-.51,4.38-.8,6.8-.62,4.95-.95,7.58-.71,5.35-1.07,8.11-.78,5.57-1.17,8.38-.83,5.61-1.23,8.38-.85,5.48-1.25,8.11-.84,5.17-1.23,7.59-.79,4.69-1.15,6.79-.71,4-1,5.75-.59,3.2-.82,4.43-.42,2.19-.55,2.85l-.2,1s0-.35.09-1,.15-1.63.27-2.85.28-2.72.45-4.43.37-3.64.62-5.75.52-4.38.8-6.79.62-5,.95-7.59.71-5.35,1.08-8.11.77-5.57,1.16-8.38.83-5.61,1.24-8.38.84-5.48,1.25-8.11.83-5.17,1.22-7.58.8-4.7,1.15-6.8.71-4,1-5.75.59-3.2.81-4.42l.55-2.86Z"/><path class="cls-1" d="M238.06.12l-.09,1c-.06.66-.15,1.63-.27,2.86s-.28,2.71-.45,4.42-.37,3.64-.62,5.75-.52,4.38-.8,6.8-.62,4.95-1,7.58-.71,5.35-1.08,8.11S233,42.21,232.64,45s-.83,5.61-1.24,8.38-.84,5.48-1.25,8.11-.83,5.17-1.22,7.59-.79,4.69-1.15,6.79-.71,4-1,5.75-.59,3.2-.81,4.43-.43,2.19-.55,2.85l-.2,1s0-.35.09-1,.15-1.63.26-2.85.28-2.72.46-4.43.37-3.64.62-5.75.51-4.38.79-6.79.63-5,1-7.59.71-5.35,1.07-8.11.78-5.57,1.17-8.38.83-5.61,1.23-8.38.85-5.48,1.25-8.11.84-5.17,1.23-7.58.79-4.7,1.15-6.8.71-4,1-5.75.59-3.2.82-4.42l.55-2.86Z"/><path class="cls-1" d="M235.19.12l-.09,1c-.06.66-.15,1.63-.27,2.86s-.28,2.71-.45,4.42-.37,3.64-.62,5.75-.52,4.38-.8,6.8-.62,4.95-1,7.58-.71,5.35-1.08,8.11-.77,5.57-1.16,8.38-.83,5.61-1.23,8.38-.85,5.48-1.25,8.11-.84,5.17-1.23,7.59-.79,4.69-1.14,6.79-.72,4-1,5.75-.59,3.2-.82,4.43-.42,2.19-.55,2.85l-.2,1s0-.35.09-1,.15-1.63.27-2.85.28-2.72.45-4.43.37-3.64.62-5.75.52-4.38.8-6.79.62-5,.95-7.59.71-5.35,1.08-8.11.77-5.57,1.16-8.38.83-5.61,1.24-8.38.84-5.48,1.25-8.11.83-5.17,1.22-7.58.79-4.7,1.15-6.8.71-4,1-5.75.59-3.2.81-4.42L235,1.12Z"/><path class="cls-1" d="M232.32.12l-.09,1c-.06.66-.15,1.63-.26,2.86s-.28,2.71-.46,4.42-.37,3.64-.62,5.75-.51,4.38-.8,6.8-.62,4.95-1,7.58-.7,5.35-1.07,8.11-.78,5.57-1.17,8.38-.82,5.61-1.23,8.38-.84,5.48-1.25,8.11-.83,5.17-1.22,7.59-.79,4.69-1.15,6.79-.71,4-1,5.75-.59,3.2-.81,4.43-.43,2.19-.55,2.85l-.2,1s0-.35.09-1,.15-1.63.26-2.85.28-2.72.46-4.43.37-3.64.62-5.75.51-4.38.79-6.79.63-5,1-7.59.7-5.35,1.07-8.11.78-5.57,1.17-8.38.82-5.61,1.23-8.38.85-5.48,1.25-8.11.84-5.17,1.23-7.58.79-4.7,1.14-6.8.72-4,1-5.75.59-3.2.81-4.42l.56-2.86C232.26.47,232.32.12,232.32.12Z"/><path class="cls-1" d="M229.46.12l-.09,1c-.06.66-.15,1.63-.27,2.86s-.28,2.71-.45,4.42-.37,3.64-.62,5.75-.52,4.38-.8,6.8-.62,4.95-.95,7.58-.71,5.35-1.08,8.11S224.43,42.21,224,45s-.83,5.61-1.24,8.38-.84,5.48-1.24,8.11-.84,5.17-1.23,7.59-.79,4.69-1.14,6.79-.71,4-1,5.75-.59,3.2-.82,4.43-.42,2.19-.55,2.85l-.2,1s0-.35.09-1,.15-1.63.27-2.85.28-2.72.45-4.43.37-3.64.62-5.75.52-4.38.8-6.79.62-5,1-7.59.71-5.35,1.08-8.11.77-5.57,1.16-8.38.83-5.61,1.24-8.38.84-5.48,1.25-8.11.83-5.17,1.22-7.58.79-4.7,1.15-6.8.71-4,1-5.75.59-3.2.82-4.42l.55-2.86Z"/><path class="cls-1" d="M226.59.12l-.09,1c-.06.66-.15,1.63-.27,2.86s-.27,2.71-.45,4.42-.37,3.64-.62,5.75-.51,4.38-.8,6.8-.62,4.95-1,7.58-.71,5.35-1.07,8.11-.78,5.57-1.17,8.38-.82,5.61-1.23,8.38-.84,5.48-1.25,8.11-.83,5.17-1.22,7.59-.79,4.69-1.15,6.79-.71,4-1,5.75-.59,3.2-.81,4.43-.42,2.19-.55,2.85l-.2,1s0-.35.09-1,.15-1.63.26-2.85.28-2.72.46-4.43.37-3.64.62-5.75.51-4.38.79-6.79.63-5,1-7.59.7-5.35,1.07-8.11.78-5.57,1.17-8.38.82-5.61,1.23-8.38.84-5.48,1.25-8.11.83-5.17,1.22-7.58.8-4.7,1.15-6.8.71-4,1-5.75.59-3.2.81-4.42l.55-2.86Z"/><path class="cls-1" d="M223.72.12l-.09,1c-.06.66-.15,1.63-.26,2.86s-.28,2.71-.46,4.42-.37,3.64-.62,5.75-.51,4.38-.79,6.8-.62,4.95-.95,7.58-.71,5.35-1.08,8.11-.77,5.57-1.16,8.38-.83,5.61-1.24,8.38-.84,5.48-1.24,8.11-.84,5.17-1.23,7.59-.79,4.69-1.14,6.79-.71,4-1,5.75-.59,3.2-.82,4.43-.42,2.19-.55,2.85l-.2,1s0-.35.09-1,.16-1.63.27-2.85.28-2.72.45-4.43.37-3.64.62-5.75.52-4.38.8-6.79.62-5,.95-7.59.71-5.35,1.08-8.11.77-5.57,1.16-8.38.83-5.61,1.23-8.38.85-5.48,1.25-8.11S219.6,23.36,220,21s.79-4.7,1.15-6.8.71-4,1-5.75.59-3.2.82-4.42l.55-2.86C223.66.47,223.72.12,223.72.12Z"/><path class="cls-1" d="M220.86.12l-.09,1c-.06.66-.15,1.63-.27,2.86s-.28,2.71-.45,4.42-.37,3.64-.62,5.75-.52,4.38-.8,6.8-.62,4.95-.95,7.58-.71,5.35-1.07,8.11-.78,5.57-1.17,8.38-.82,5.61-1.23,8.38-.84,5.48-1.25,8.11-.83,5.17-1.22,7.59-.79,4.69-1.15,6.79-.71,4-1,5.75-.58,3.2-.81,4.43-.42,2.19-.55,2.85l-.2,1s0-.35.09-1,.15-1.63.27-2.85.27-2.72.45-4.43.37-3.64.62-5.75.51-4.38.79-6.79.63-5,.95-7.59.71-5.35,1.08-8.11.77-5.57,1.16-8.38.83-5.61,1.24-8.38.84-5.48,1.25-8.11.83-5.17,1.22-7.58.79-4.7,1.15-6.8.71-4,1-5.75.58-3.2.81-4.42l.55-2.86Z"/><path class="cls-1" d="M329,.16l-.09,1c-.06.65-.15,1.62-.26,2.85s-.28,2.71-.46,4.42-.37,3.64-.61,5.75-.52,4.38-.8,6.8-.62,5-.95,7.58-.71,5.35-1.07,8.12-.78,5.56-1.17,8.37-.82,5.61-1.23,8.38-.84,5.48-1.24,8.11-.84,5.17-1.22,7.59-.8,4.69-1.15,6.79-.71,4-1,5.75-.58,3.2-.81,4.43-.42,2.19-.55,2.85l-.2,1s0-.36.09-1,.15-1.63.27-2.85.27-2.72.45-4.43.37-3.64.62-5.75.51-4.38.79-6.79.62-5,.95-7.59.71-5.35,1.08-8.11.77-5.57,1.16-8.38.83-5.61,1.23-8.37.85-5.49,1.25-8.12.83-5.17,1.22-7.58.79-4.7,1.15-6.8.71-4,1-5.75.59-3.2.82-4.42l.54-2.85Z"/><path class="cls-1" d="M326.11.16l-.09,1c-.06.65-.15,1.62-.27,2.85s-.27,2.71-.45,4.42-.37,3.64-.62,5.75-.51,4.38-.79,6.8-.62,5-.95,7.58-.71,5.35-1.08,8.12-.77,5.56-1.16,8.37-.82,5.61-1.23,8.38-.84,5.48-1.25,8.11-.83,5.17-1.22,7.59-.79,4.69-1.14,6.79-.71,4-1,5.75-.59,3.2-.81,4.43-.42,2.19-.55,2.85l-.2,1s0-.36.09-1,.15-1.63.26-2.85.28-2.72.46-4.43.37-3.64.61-5.75.52-4.38.8-6.79.62-5,.95-7.59.71-5.35,1.07-8.11.78-5.57,1.17-8.38.82-5.61,1.23-8.37.84-5.49,1.25-8.12S322,23.4,322.38,21s.79-4.7,1.14-6.8.71-4,1-5.75.59-3.2.81-4.42l.55-2.85Z"/><path class="cls-1" d="M323.25.16l-.09,1c-.07.65-.16,1.62-.27,2.85s-.28,2.71-.45,4.42-.37,3.64-.62,5.75-.52,4.38-.8,6.8-.62,5-.95,7.58-.7,5.35-1.07,8.12-.77,5.56-1.16,8.37-.83,5.61-1.23,8.38-.84,5.48-1.25,8.11-.83,5.17-1.22,7.59-.79,4.69-1.15,6.79-.7,4-1,5.75-.59,3.2-.81,4.43-.43,2.19-.55,2.85l-.2,1s0-.36.09-1,.15-1.63.26-2.85.28-2.72.45-4.43.37-3.64.62-5.75.52-4.38.8-6.79.62-5,.95-7.59.7-5.35,1.07-8.11.77-5.57,1.16-8.38.83-5.61,1.24-8.37.84-5.49,1.24-8.12.84-5.17,1.22-7.58.8-4.7,1.15-6.8.71-4,1-5.75.58-3.2.81-4.42l.55-2.85Z"/><path class="cls-1" d="M320.38.16l-.09,1c-.06.65-.15,1.62-.26,2.85s-.28,2.71-.46,4.42-.37,3.64-.61,5.75-.52,4.38-.8,6.8-.62,5-1,7.58-.71,5.35-1.07,8.12-.77,5.56-1.16,8.37-.83,5.61-1.24,8.38-.84,5.48-1.24,8.11-.83,5.17-1.22,7.59-.79,4.69-1.15,6.79-.71,4-1,5.75-.59,3.2-.82,4.43-.42,2.19-.55,2.85-.19,1-.19,1,0-.36.08-1,.16-1.63.27-2.85.28-2.72.45-4.43.37-3.64.62-5.75.51-4.38.8-6.79.62-5,.94-7.59.71-5.35,1.08-8.11.77-5.57,1.16-8.38.83-5.61,1.23-8.37.85-5.49,1.25-8.12.83-5.17,1.22-7.58.79-4.7,1.15-6.8.71-4,1-5.75.59-3.2.81-4.42l.55-2.85Z"/><path class="cls-1" d="M317.52.16l-.09,1c-.06.65-.15,1.62-.27,2.85s-.28,2.71-.45,4.42-.37,3.64-.62,5.75-.51,4.38-.8,6.8-.61,5-.94,7.58-.71,5.35-1.08,8.12-.77,5.56-1.16,8.37-.82,5.61-1.23,8.38-.84,5.48-1.24,8.11-.84,5.17-1.22,7.59-.8,4.69-1.15,6.79-.71,4-1,5.75-.58,3.2-.81,4.43S305,88.3,304.88,89l-.2,1s0-.36.09-1,.15-1.63.27-2.85.28-2.72.45-4.43.37-3.64.62-5.75.51-4.38.79-6.79.62-5,1-7.59.71-5.35,1.07-8.11.78-5.57,1.17-8.38.82-5.61,1.23-8.37.84-5.49,1.25-8.12.83-5.17,1.22-7.58.79-4.7,1.14-6.8.71-4,1-5.75.58-3.2.81-4.42l.55-2.85Z"/><path class="cls-1" d="M314.65.16l-.09,1c-.06.65-.15,1.62-.26,2.85s-.28,2.71-.46,4.42-.36,3.64-.61,5.75-.52,4.38-.8,6.8-.62,5-.95,7.58-.7,5.35-1.07,8.12-.77,5.56-1.16,8.37-.83,5.61-1.23,8.38-.84,5.48-1.25,8.11-.83,5.17-1.22,7.59-.79,4.69-1.14,6.79-.71,4-1,5.75-.59,3.2-.81,4.43S302.15,88.3,302,89l-.2,1s0-.36.09-1,.15-1.63.27-2.85.27-2.72.45-4.43.37-3.64.61-5.75.52-4.38.8-6.79.62-5,.95-7.59.71-5.35,1.07-8.11.77-5.57,1.16-8.38.83-5.61,1.24-8.37.84-5.49,1.24-8.12.84-5.17,1.22-7.58.79-4.7,1.15-6.8.71-4,1-5.75.59-3.2.82-4.42l.54-2.85Z"/><path class="cls-1" d="M311.79.16l-.09,1c-.06.65-.15,1.62-.27,2.85s-.27,2.71-.45,4.42-.37,3.64-.62,5.75-.51,4.38-.79,6.8-.62,5-.95,7.58-.71,5.35-1.07,8.12-.77,5.56-1.16,8.37-.83,5.61-1.23,8.38-.85,5.48-1.25,8.11-.83,5.17-1.22,7.59-.79,4.69-1.14,6.79-.71,4-1,5.75-.59,3.2-.81,4.43-.43,2.19-.55,2.85l-.2,1s0-.36.09-1,.15-1.63.26-2.85.28-2.72.46-4.43.36-3.64.61-5.75.52-4.38.8-6.79.62-5,.95-7.59.7-5.35,1.07-8.11.77-5.57,1.16-8.38.83-5.61,1.23-8.37.85-5.49,1.25-8.12.83-5.17,1.22-7.58.79-4.7,1.15-6.8.7-4,1-5.75.59-3.2.81-4.42l.55-2.85Z"/><path class="cls-1" d="M308.93.16l-.09,1c-.07.65-.15,1.62-.27,2.85s-.28,2.71-.45,4.42-.37,3.64-.62,5.75-.51,4.38-.8,6.8-.62,5-.94,7.58-.71,5.35-1.08,8.12-.77,5.56-1.16,8.37-.82,5.61-1.23,8.38-.84,5.48-1.24,8.11-.83,5.17-1.22,7.59-.79,4.69-1.15,6.79-.71,4-1,5.75-.59,3.2-.81,4.43-.43,2.19-.55,2.85l-.2,1s0-.36.09-1,.15-1.63.26-2.85.28-2.72.45-4.43.37-3.64.62-5.75.51-4.38.8-6.79.61-5,.94-7.59.71-5.35,1.08-8.11.77-5.57,1.16-8.38.82-5.61,1.23-8.37.84-5.49,1.25-8.12.83-5.17,1.22-7.58.79-4.7,1.14-6.8.71-4,1-5.75.58-3.2.81-4.42l.55-2.85Z"/><path class="cls-1" d="M272.09.16l-.09,1c-.06.65-.15,1.62-.27,2.85s-.28,2.71-.45,4.42-.37,3.64-.61,5.75-.52,4.38-.8,6.8-.62,5-.94,7.58-.71,5.35-1.07,8.12-.77,5.56-1.16,8.37-.83,5.61-1.23,8.38-.84,5.48-1.24,8.11-.83,5.17-1.22,7.59-.79,4.69-1.14,6.79-.71,4-1,5.75-.58,3.2-.81,4.43-.42,2.19-.55,2.85l-.2,1s0-.36.09-1,.15-1.63.27-2.85.27-2.72.45-4.43.37-3.64.61-5.75.51-4.38.8-6.79.61-5,.94-7.59.71-5.35,1.07-8.11.77-5.57,1.16-8.38.83-5.61,1.23-8.37.84-5.49,1.25-8.12S268,23.4,268.36,21s.79-4.7,1.15-6.8.7-4,1-5.75.59-3.2.81-4.42l.55-2.85Z"/><path class="cls-1" d="M269.22.16l-.09,1c-.06.65-.15,1.62-.26,2.85s-.28,2.71-.45,4.42-.37,3.64-.62,5.75-.51,4.38-.79,6.8-.62,5-.95,7.58-.7,5.35-1.07,8.12-.77,5.56-1.16,8.37-.82,5.61-1.22,8.38-.84,5.48-1.25,8.11-.83,5.17-1.21,7.59-.79,4.69-1.15,6.79-.7,4-1,5.75-.59,3.2-.81,4.43-.42,2.19-.55,2.85l-.2,1s0-.36.09-1,.15-1.63.26-2.85.28-2.72.46-4.43.36-3.64.61-5.75.51-4.38.79-6.79.62-5,.95-7.59.71-5.35,1.07-8.11.77-5.57,1.16-8.38.82-5.61,1.23-8.37.84-5.49,1.24-8.12.83-5.17,1.22-7.58.79-4.7,1.14-6.8.71-4,1-5.75.58-3.2.81-4.42L269,1.17Z"/><path class="cls-1" d="M266.36.16l-.09,1c-.06.65-.15,1.62-.27,2.85s-.27,2.71-.45,4.42-.36,3.64-.61,5.75-.51,4.38-.8,6.8-.61,5-.94,7.58-.71,5.35-1.07,8.12-.77,5.56-1.16,8.37-.82,5.61-1.23,8.38-.84,5.48-1.24,8.11-.83,5.17-1.22,7.59-.78,4.69-1.14,6.79-.71,4-1,5.75-.59,3.2-.81,4.43-.42,2.19-.55,2.85l-.2,1s0-.36.09-1,.15-1.63.26-2.85.28-2.72.45-4.43.37-3.64.62-5.75.51-4.38.79-6.79.62-5,1-7.59.7-5.35,1.07-8.11.77-5.57,1.16-8.38.82-5.61,1.22-8.37.84-5.49,1.25-8.12.83-5.17,1.22-7.58.78-4.7,1.14-6.8.71-4,1-5.75.59-3.2.81-4.42l.55-2.85Z"/><path class="cls-1" d="M263.49.16l-.08,1c-.07.65-.16,1.62-.27,2.85s-.28,2.71-.45,4.42-.37,3.64-.62,5.75-.51,4.38-.79,6.8-.62,5-.94,7.58-.71,5.35-1.07,8.12-.77,5.56-1.16,8.37-.82,5.61-1.23,8.38-.84,5.48-1.24,8.11-.83,5.17-1.22,7.59-.79,4.69-1.14,6.79-.71,4-1,5.75-.59,3.2-.81,4.43S251,88.3,250.9,89l-.2,1s0-.36.09-1,.15-1.63.26-2.85.28-2.72.45-4.43.37-3.64.62-5.75.51-4.38.79-6.79.62-5,.94-7.59.71-5.35,1.07-8.11.77-5.57,1.16-8.38.83-5.61,1.23-8.37.84-5.49,1.24-8.12.84-5.17,1.22-7.58.79-4.7,1.15-6.8.7-4,1-5.75.58-3.2.81-4.42l.55-2.85C263.43.51,263.49.16,263.49.16Z"/><path class="cls-1" d="M260.63.16l-.09,1c-.06.65-.15,1.62-.26,2.85s-.28,2.71-.46,4.42-.36,3.64-.61,5.75-.51,4.38-.79,6.8-.62,5-.95,7.58-.7,5.35-1.07,8.12-.77,5.56-1.15,8.37-.83,5.61-1.23,8.38-.84,5.48-1.24,8.11-.83,5.17-1.22,7.59-.79,4.69-1.14,6.79-.71,4-1,5.75-.58,3.2-.81,4.43S248.16,88.3,248,89s-.19,1-.19,1,0-.36.08-1,.16-1.63.27-2.85.28-2.72.45-4.43.37-3.64.61-5.75.52-4.38.8-6.79.61-5,.94-7.59.71-5.35,1.07-8.11.77-5.57,1.16-8.38.82-5.61,1.23-8.37.84-5.49,1.24-8.12.83-5.17,1.22-7.58.79-4.7,1.14-6.8.71-4,1-5.75.59-3.2.81-4.42l.55-2.85Z"/><path class="cls-1" d="M257.77.16l-.09,1c-.06.65-.15,1.62-.27,2.85s-.27,2.71-.45,4.42-.37,3.64-.61,5.75-.52,4.38-.8,6.8-.61,5-.94,7.58-.71,5.35-1.07,8.12-.77,5.56-1.16,8.37-.82,5.61-1.22,8.38-.84,5.48-1.25,8.11-.83,5.17-1.21,7.59-.79,4.69-1.15,6.79-.7,4-1,5.75-.58,3.2-.81,4.43-.42,2.19-.55,2.85l-.2,1s0-.36.09-1,.15-1.63.27-2.85.27-2.72.45-4.43.36-3.64.61-5.75.51-4.38.79-6.79.62-5,.95-7.59.7-5.35,1.07-8.11.77-5.57,1.16-8.38.82-5.61,1.23-8.37.83-5.49,1.24-8.12.83-5.17,1.22-7.58.78-4.7,1.14-6.8.71-4,1-5.75.59-3.2.81-4.42l.55-2.85Z"/><path class="cls-1" d="M254.9.16l-.09,1c-.06.65-.15,1.62-.26,2.85s-.28,2.71-.45,4.42-.37,3.64-.62,5.75-.51,4.38-.79,6.8-.62,5-.94,7.58-.71,5.35-1.07,8.12-.77,5.56-1.16,8.37-.82,5.61-1.23,8.38-.84,5.48-1.24,8.11-.83,5.17-1.22,7.59-.78,4.69-1.14,6.79-.7,4-1,5.75-.59,3.2-.81,4.43-.42,2.19-.55,2.85l-.2,1s0-.36.09-1,.15-1.63.26-2.85.28-2.72.46-4.43.36-3.64.61-5.75.51-4.38.79-6.79.62-5,1-7.59.7-5.35,1.07-8.11.77-5.57,1.15-8.38.83-5.61,1.23-8.37.84-5.49,1.24-8.12.83-5.17,1.22-7.58.79-4.7,1.14-6.8.71-4,1-5.75.58-3.2.81-4.42l.54-2.85Z"/><path class="cls-1" d="M252,.16l-.09,1c-.06.65-.15,1.62-.27,2.85s-.27,2.71-.45,4.42-.36,3.64-.61,5.75-.51,4.38-.79,6.8-.62,5-1,7.58-.7,5.35-1.07,8.12-.77,5.56-1.15,8.37-.83,5.61-1.23,8.38-.84,5.48-1.24,8.11-.83,5.17-1.22,7.59-.79,4.69-1.14,6.79-.71,4-1,5.75-.59,3.2-.81,4.43-.42,2.19-.55,2.85l-.2,1s0-.36.09-1,.15-1.63.26-2.85.28-2.72.45-4.43.37-3.64.62-5.75.51-4.38.79-6.79.62-5,.94-7.59.71-5.35,1.07-8.11.77-5.57,1.16-8.38.82-5.61,1.23-8.37.84-5.49,1.24-8.12.83-5.17,1.22-7.58.79-4.7,1.14-6.8.71-4,1-5.75.59-3.2.81-4.42l.55-2.85Z"/><path class="cls-1" d="M272.11.22l.37.56c.24.37.6.89,1,1.58.88,1.37,2.13,3.33,3.57,5.72.72,1.2,1.51,2.49,2.31,3.87s1.67,2.83,2.53,4.36,1.77,3.07,2.64,4.69,1.79,3.24,2.68,4.87l2.62,4.91c.87,1.62,1.67,3.24,2.48,4.79s1.55,3.08,2.27,4.52,1.38,2.8,2,4.07c1.22,2.53,2.19,4.67,2.85,6.17.34.75.59,1.35.77,1.75l.26.62-.37-.56c-.24-.36-.6-.89-1-1.58-.88-1.36-2.13-3.33-3.57-5.72-.72-1.19-1.51-2.48-2.31-3.87s-1.67-2.83-2.52-4.35-1.77-3.08-2.65-4.69l-2.68-4.88-2.61-4.91c-.87-1.62-1.67-3.24-2.48-4.79s-1.55-3.08-2.27-4.52-1.38-2.8-2-4.07c-1.22-2.53-2.19-4.66-2.86-6.17-.34-.74-.59-1.34-.76-1.75Z"/><path class="cls-1" d="M271.58,5.55l.37.56c.23.36.6.89,1,1.58.88,1.37,2.11,3.33,3.55,5.72.72,1.19,1.49,2.49,2.29,3.87s1.66,2.83,2.51,4.36,1.75,3.07,2.62,4.68l2.66,4.88,2.59,4.91c.87,1.62,1.66,3.24,2.46,4.79s1.54,3.08,2.25,4.52,1.37,2.8,2,4.07c1.2,2.53,2.16,4.66,2.82,6.16.34.75.58,1.35.76,1.76l.26.62-.37-.56c-.23-.37-.59-.89-1-1.58-.87-1.37-2.11-3.33-3.54-5.72-.72-1.2-1.5-2.49-2.3-3.87s-1.65-2.83-2.5-4.36-1.76-3.07-2.63-4.69-1.76-3.24-2.65-4.87l-2.59-4.92c-.87-1.61-1.66-3.24-2.46-4.79s-1.54-3.07-2.25-4.51-1.37-2.81-2-4.07c-1.21-2.53-2.17-4.67-2.83-6.17-.34-.75-.58-1.35-.76-1.75Z"/><path class="cls-1" d="M270.59,10.87l.37.56c.24.37.6.89,1,1.58.88,1.37,2.13,3.34,3.57,5.73.73,1.19,1.51,2.48,2.31,3.87s1.67,2.83,2.53,4.35,1.77,3.08,2.64,4.69,1.79,3.24,2.68,4.87l2.62,4.92c.87,1.61,1.67,3.23,2.48,4.79s1.55,3.07,2.27,4.51,1.37,2.81,2,4.07c1.22,2.53,2.18,4.67,2.85,6.17.34.75.59,1.35.76,1.75l.27.62-.37-.55c-.24-.37-.6-.9-1-1.58-.88-1.37-2.13-3.34-3.57-5.73-.72-1.19-1.51-2.48-2.31-3.87s-1.67-2.83-2.52-4.35-1.77-3.08-2.65-4.69-1.78-3.24-2.68-4.87l-2.61-4.92c-.87-1.62-1.67-3.24-2.48-4.79s-1.55-3.07-2.27-4.51-1.38-2.81-2-4.08c-1.22-2.53-2.19-4.66-2.86-6.16-.34-.75-.59-1.35-.76-1.75Z"/><path class="cls-1" d="M270.1,16.2l.37.56c.24.36.6.89,1,1.58.89,1.37,2.13,3.33,3.58,5.72.72,1.2,1.51,2.49,2.31,3.87s1.67,2.83,2.52,4.35,1.77,3.08,2.65,4.69l2.68,4.88c.88,1.64,1.75,3.29,2.61,4.91s1.68,3.24,2.48,4.79,1.56,3.08,2.27,4.52,1.38,2.8,2,4.07c1.22,2.53,2.19,4.67,2.86,6.17.34.74.58,1.34.76,1.75l.27.62-.37-.56c-.24-.36-.61-.89-1-1.58-.89-1.37-2.13-3.33-3.57-5.72-.73-1.19-1.51-2.49-2.31-3.87s-1.67-2.83-2.53-4.35-1.77-3.08-2.64-4.69-1.78-3.24-2.68-4.88-1.75-3.29-2.61-4.91-1.68-3.24-2.48-4.79-1.56-3.08-2.27-4.52-1.38-2.8-2-4.07c-1.21-2.53-2.18-4.67-2.85-6.17-.34-.74-.59-1.34-.77-1.75Z"/><path class="cls-1" d="M269.43,21.53s.12.19.37.55.6.9,1,1.58c.89,1.37,2.13,3.34,3.58,5.73.72,1.19,1.51,2.48,2.31,3.87s1.67,2.83,2.52,4.35,1.77,3.08,2.65,4.69,1.78,3.24,2.68,4.87l2.61,4.92c.87,1.61,1.68,3.24,2.48,4.79s1.56,3.07,2.27,4.51,1.38,2.81,2,4.08c1.22,2.53,2.19,4.66,2.85,6.16.34.75.59,1.35.77,1.75l.26.63-.37-.56c-.24-.37-.6-.89-1-1.58-.88-1.37-2.12-3.33-3.57-5.72-.72-1.2-1.5-2.49-2.31-3.87s-1.67-2.83-2.52-4.36-1.77-3.07-2.64-4.69l-2.68-4.87-2.61-4.92c-.87-1.61-1.68-3.24-2.48-4.79s-1.56-3.07-2.27-4.51-1.38-2.81-2-4.07c-1.21-2.53-2.18-4.67-2.85-6.17-.34-.75-.59-1.35-.77-1.75Z"/><path class="cls-1" d="M268.75,26.85l.38.56c.23.37.6.89,1,1.58.89,1.37,2.13,3.33,3.57,5.72.73,1.2,1.51,2.49,2.32,3.87s1.67,2.83,2.52,4.36,1.77,3.07,2.65,4.69l2.68,4.87c.87,1.65,1.75,3.29,2.61,4.91s1.67,3.24,2.48,4.8,1.55,3.07,2.27,4.51,1.38,2.8,2,4.07c1.22,2.53,2.18,4.67,2.85,6.17.34.75.59,1.35.76,1.75l.27.62-.37-.56c-.24-.36-.6-.89-1-1.58-.88-1.36-2.13-3.33-3.57-5.72-.72-1.19-1.51-2.48-2.31-3.87s-1.67-2.83-2.52-4.35-1.77-3.08-2.65-4.69-1.78-3.24-2.67-4.88-1.75-3.29-2.62-4.91-1.67-3.24-2.48-4.79-1.55-3.08-2.26-4.51-1.38-2.81-2-4.08c-1.21-2.53-2.19-4.66-2.85-6.16-.35-.75-.59-1.35-.77-1.76Z"/><path class="cls-1" d="M268.35,32.18l.37.56c.24.36.6.89,1,1.58.88,1.37,2.13,3.33,3.57,5.72.72,1.19,1.51,2.49,2.31,3.87s1.67,2.83,2.53,4.35,1.77,3.08,2.64,4.69,1.78,3.24,2.68,4.88,1.75,3.29,2.61,4.91,1.68,3.24,2.48,4.79,1.56,3.07,2.27,4.51,1.38,2.81,2,4.08c1.22,2.53,2.19,4.66,2.86,6.16.34.75.58,1.35.76,1.76l.26.62s-.12-.2-.37-.56-.6-.89-1-1.58c-.89-1.37-2.13-3.33-3.57-5.72-.73-1.19-1.51-2.49-2.31-3.87s-1.67-2.83-2.53-4.36-1.77-3.07-2.64-4.69L281.58,59c-.87-1.65-1.75-3.29-2.61-4.91s-1.68-3.24-2.48-4.8-1.55-3.07-2.27-4.51-1.38-2.81-2-4.07c-1.22-2.53-2.19-4.67-2.86-6.17-.34-.75-.59-1.35-.76-1.75Z"/><path class="cls-1" d="M267.68,37.51l.37.55c.24.37.6.89,1,1.58.88,1.37,2.13,3.34,3.57,5.73.72,1.19,1.51,2.48,2.31,3.87s1.67,2.83,2.53,4.35,1.76,3.08,2.64,4.69,1.78,3.24,2.68,4.87,1.75,3.3,2.61,4.92,1.68,3.23,2.48,4.79,1.56,3.07,2.27,4.51,1.38,2.81,2,4.07c1.22,2.53,2.19,4.67,2.85,6.17.34.75.59,1.35.77,1.75L296,90l-.37-.55c-.24-.37-.6-.9-1-1.58-.88-1.37-2.12-3.34-3.57-5.73-.72-1.19-1.5-2.48-2.31-3.87s-1.67-2.83-2.52-4.35-1.77-3.08-2.64-4.69l-2.68-4.87-2.61-4.92c-.87-1.62-1.68-3.24-2.48-4.79s-1.56-3.07-2.27-4.51-1.38-2.81-2-4.08c-1.22-2.53-2.19-4.66-2.86-6.16-.34-.75-.59-1.35-.76-1.75Z"/><path class="cls-1" d="M358.92.12l-.09,1c-.06.66-.15,1.63-.26,2.86s-.28,2.71-.46,4.42-.37,3.64-.62,5.75-.51,4.38-.8,6.8-.62,4.95-.95,7.58-.71,5.35-1.07,8.11-.78,5.57-1.17,8.38-.83,5.61-1.23,8.38-.85,5.48-1.25,8.11-.84,5.17-1.23,7.59-.79,4.69-1.15,6.79-.71,4-1,5.75-.59,3.2-.82,4.43-.42,2.19-.55,2.85l-.2,1s0-.35.09-1,.15-1.63.27-2.85.28-2.72.45-4.43.37-3.64.62-5.75.52-4.38.8-6.79.62-5,1-7.59.71-5.35,1.08-8.11.77-5.57,1.16-8.38.83-5.61,1.24-8.38.84-5.48,1.25-8.11.83-5.17,1.22-7.58.8-4.7,1.15-6.8.71-4,1-5.75.59-3.2.81-4.42l.55-2.86Z"/><path class="cls-1" d="M356.06.12l-.09,1c-.06.66-.15,1.63-.27,2.86s-.28,2.71-.45,4.42-.37,3.64-.62,5.75-.52,4.38-.8,6.8-.62,4.95-.95,7.58-.71,5.35-1.08,8.11S351,42.21,350.64,45s-.83,5.61-1.24,8.38-.84,5.48-1.25,8.11-.83,5.17-1.22,7.59-.79,4.69-1.15,6.79-.71,4-1,5.75-.59,3.2-.81,4.43-.43,2.19-.55,2.85l-.2,1s0-.35.09-1,.15-1.63.26-2.85.28-2.72.46-4.43.37-3.64.62-5.75.51-4.38.79-6.79.63-5,1-7.59.71-5.35,1.07-8.11.78-5.57,1.17-8.38.83-5.61,1.23-8.38.85-5.48,1.25-8.11.84-5.17,1.23-7.58.79-4.7,1.15-6.8.71-4,1-5.75.59-3.2.82-4.42l.55-2.86Z"/><path class="cls-1" d="M353.19.12l-.09,1c-.06.66-.15,1.63-.27,2.86s-.28,2.71-.45,4.42-.37,3.64-.62,5.75-.52,4.38-.8,6.8-.62,4.95-.95,7.58-.71,5.35-1.08,8.11-.77,5.57-1.16,8.38-.83,5.61-1.23,8.38-.85,5.48-1.25,8.11-.84,5.17-1.23,7.59-.79,4.69-1.14,6.79-.72,4-1,5.75-.59,3.2-.82,4.43-.42,2.19-.55,2.85l-.2,1s0-.35.09-1,.15-1.63.27-2.85.28-2.72.45-4.43.37-3.64.62-5.75.52-4.38.8-6.79.62-5,.95-7.59.71-5.35,1.08-8.11.77-5.57,1.16-8.38.83-5.61,1.24-8.38.84-5.48,1.25-8.11.83-5.17,1.22-7.58.79-4.7,1.15-6.8.71-4,1-5.75.59-3.2.81-4.42L353,1.12Z"/><path class="cls-1" d="M350.32.12l-.09,1c-.06.66-.15,1.63-.26,2.86s-.28,2.71-.46,4.42-.37,3.64-.62,5.75-.51,4.38-.8,6.8-.62,4.95-.95,7.58-.7,5.35-1.07,8.11-.78,5.57-1.17,8.38-.82,5.61-1.23,8.38-.84,5.48-1.25,8.11-.83,5.17-1.22,7.59-.79,4.69-1.15,6.79-.71,4-1,5.75-.59,3.2-.81,4.43-.43,2.19-.55,2.85l-.2,1s0-.35.09-1,.15-1.63.26-2.85.28-2.72.46-4.43.37-3.64.62-5.75.51-4.38.79-6.79.63-5,1-7.59.7-5.35,1.07-8.11.78-5.57,1.17-8.38.82-5.61,1.23-8.38.85-5.48,1.25-8.11.84-5.17,1.23-7.58.79-4.7,1.14-6.8.72-4,1-5.75.59-3.2.81-4.42l.56-2.86C350.26.47,350.32.12,350.32.12Z"/><path class="cls-1" d="M347.46.12l-.09,1c-.06.66-.15,1.63-.27,2.86s-.28,2.71-.45,4.42-.37,3.64-.62,5.75-.52,4.38-.8,6.8-.62,4.95-1,7.58-.71,5.35-1.08,8.11S342.43,42.21,342,45s-.83,5.61-1.24,8.38-.84,5.48-1.24,8.11-.84,5.17-1.23,7.59-.79,4.69-1.14,6.79-.71,4-1,5.75-.59,3.2-.82,4.43-.42,2.19-.55,2.85l-.2,1s0-.35.09-1,.15-1.63.27-2.85.28-2.72.45-4.43.37-3.64.62-5.75.52-4.38.8-6.79.62-5,.95-7.59.71-5.35,1.08-8.11.77-5.57,1.16-8.38.83-5.61,1.24-8.38.84-5.48,1.25-8.11.83-5.17,1.22-7.58.79-4.7,1.15-6.8.71-4,1-5.75.59-3.2.82-4.42l.55-2.86Z"/><path class="cls-1" d="M344.59.12l-.09,1c-.06.66-.15,1.63-.27,2.86s-.27,2.71-.45,4.42-.37,3.64-.62,5.75-.51,4.38-.8,6.8-.62,4.95-.95,7.58-.71,5.35-1.07,8.11-.78,5.57-1.17,8.38-.82,5.61-1.23,8.38-.84,5.48-1.25,8.11-.83,5.17-1.22,7.59-.79,4.69-1.15,6.79-.71,4-1,5.75-.59,3.2-.81,4.43-.42,2.19-.55,2.85l-.2,1s0-.35.09-1,.15-1.63.26-2.85.28-2.72.46-4.43.37-3.64.62-5.75.51-4.38.79-6.79.63-5,1-7.59.7-5.35,1.07-8.11.78-5.57,1.17-8.38.82-5.61,1.23-8.38.84-5.48,1.25-8.11.83-5.17,1.22-7.58.8-4.7,1.15-6.8.71-4,1-5.75.59-3.2.81-4.42l.55-2.86Z"/><path class="cls-1" d="M341.72.12l-.09,1c-.06.66-.15,1.63-.26,2.86s-.28,2.71-.46,4.42-.37,3.64-.62,5.75-.51,4.38-.79,6.8-.62,4.95-.95,7.58-.71,5.35-1.08,8.11-.77,5.57-1.16,8.38-.83,5.61-1.24,8.38-.84,5.48-1.24,8.11-.84,5.17-1.23,7.59-.79,4.69-1.14,6.79-.71,4-1,5.75-.59,3.2-.82,4.43-.42,2.19-.55,2.85l-.2,1s0-.35.09-1,.16-1.63.27-2.85.28-2.72.45-4.43.37-3.64.62-5.75.52-4.38.8-6.79.62-5,1-7.59.71-5.35,1.08-8.11.77-5.57,1.16-8.38.83-5.61,1.23-8.38.85-5.48,1.25-8.11S337.6,23.36,338,21s.79-4.7,1.15-6.8.71-4,1-5.75.59-3.2.82-4.42l.55-2.86C341.66.47,341.72.12,341.72.12Z"/><path class="cls-1" d="M338.86.12l-.09,1c-.06.66-.15,1.63-.27,2.86s-.28,2.71-.45,4.42-.37,3.64-.62,5.75-.52,4.38-.8,6.8-.62,4.95-.95,7.58-.71,5.35-1.07,8.11-.78,5.57-1.17,8.38-.82,5.61-1.23,8.38-.84,5.48-1.25,8.11-.83,5.17-1.22,7.59-.79,4.69-1.15,6.79-.71,4-1,5.75-.58,3.2-.81,4.43-.42,2.19-.55,2.85l-.2,1s0-.35.09-1,.15-1.63.27-2.85.27-2.72.45-4.43.37-3.64.62-5.75.51-4.38.79-6.79.63-5,.95-7.59.71-5.35,1.08-8.11.77-5.57,1.16-8.38.83-5.61,1.24-8.38.84-5.48,1.25-8.11.83-5.17,1.22-7.58.79-4.7,1.15-6.8.71-4,1-5.75.58-3.2.81-4.42l.55-2.86Z"/><path class="cls-1" d="M394.12,21.43l-.33.05-.93.14-1.44.18c-.55.07-1.18.15-1.86.21l-2.19.17-2.43.14-2.6.08-2.68,0-2.66,0-2.58-.08L372,22.18,369.88,22c-.66-.05-1.26-.13-1.8-.21l-1.38-.18-.89-.14-.31-.05.32-.06.93-.14,1.44-.18c.56-.07,1.18-.15,1.86-.2l2.19-.18,2.44-.13,2.6-.09,2.67,0,2.67,0,2.57.09,2.4.14,2.14.17c.66,0,1.27.13,1.8.2l1.39.18.89.14Z"/><path class="cls-1" d="M394.53,18.57l-.33.06-.93.14-1.44.17c-.55.08-1.18.16-1.86.21l-2.19.17-2.44.14-2.59.09-2.68,0-2.66,0-2.58-.09-2.39-.13-2.15-.18c-.66,0-1.26-.13-1.8-.2l-1.38-.18-.89-.14-.32-.06.33-.05.93-.15,1.44-.18c.55-.07,1.18-.15,1.86-.2l2.19-.17,2.44-.14,2.6-.09,2.67,0,2.67,0,2.57.08,2.4.14,2.14.17c.66.06,1.27.14,1.8.21l1.39.17.89.15Z"/><path class="cls-1" d="M394.94,15.71l-.33.06-.93.14-1.44.18c-.55.07-1.18.15-1.86.2l-2.19.18-2.44.13-2.59.09-2.68,0-2.66,0-2.58-.09-2.4-.13-2.14-.18c-.66-.05-1.26-.13-1.8-.2l-1.39-.18-.88-.14-.32-.06.33-.05.93-.14,1.44-.18c.55-.07,1.18-.15,1.86-.21l2.19-.17,2.44-.14,2.6-.08,2.67,0,2.67,0,2.57.09,2.4.13,2.14.18c.66,0,1.27.13,1.8.2l1.39.18.89.14Z"/><path class="cls-1" d="M395.35,12.86l-.33.05-.93.14-1.44.18c-.55.07-1.18.15-1.86.2l-2.19.18-2.44.13-2.6.09-2.67,0-2.66,0-2.58-.08-2.4-.14-2.14-.17c-.66-.06-1.27-.13-1.8-.21l-1.39-.18-.89-.14-.31-.05.33-.06.93-.14,1.44-.18c.55-.07,1.18-.15,1.86-.2l2.19-.18,2.44-.13,2.59-.09,2.68,0,2.66,0,2.58.09,2.4.13,2.14.18c.66.05,1.26.13,1.8.2l1.39.18.88.14Z"/><path class="cls-1" d="M395.76,10l-.33.05-.93.15-1.44.17c-.55.07-1.18.16-1.86.21l-2.19.17-2.44.14L384,11l-2.67,0-2.67,0-2.57-.09-2.4-.14-2.14-.17c-.66-.05-1.27-.13-1.8-.2l-1.39-.18-.89-.15-.31-.05.33-.06.93-.14,1.44-.18c.55-.07,1.18-.15,1.86-.2l2.19-.18,2.44-.13L378.91,9l2.68,0,2.66,0,2.58.09,2.4.14,2.14.17c.66.05,1.26.13,1.8.21l1.39.17.88.15Z"/><path class="cls-1" d="M396.17,7.14l-.33.06-.93.14-1.44.18c-.55.07-1.18.15-1.86.2l-2.19.17L387,8l-2.6.09-2.67,0-2.67,0L376.47,8l-2.4-.13-2.14-.18c-.66,0-1.27-.13-1.8-.2l-1.39-.18-.89-.14-.31-.06.33,0L368.8,7l1.43-.18c.56-.08,1.19-.15,1.86-.21l2.2-.17,2.43-.14,2.6-.08,2.68,0,2.66,0,2.58.08,2.39.14,2.15.17c.66.06,1.26.14,1.8.21L395,7l.89.14Z"/><path class="cls-1" d="M396.58,4.29l-.33,0-.93.14-1.44.18c-.55.07-1.18.15-1.86.2L389.83,5l-2.44.13-2.6.09-2.67,0-2.67,0-2.57-.08L374.48,5l-2.14-.17c-.67-.06-1.27-.14-1.8-.21l-1.39-.18-.89-.14-.31,0,.33-.06.93-.14,1.43-.18c.56-.07,1.19-.15,1.86-.2l2.2-.18,2.43-.13,2.6-.09,2.68,0,2.66,0,2.58.09,2.39.13,2.15.18c.66,0,1.26.13,1.8.2l1.38.18.89.14Z"/><path class="cls-1" d="M397,1.43l-.33.05-.93.14-1.44.18c-.56.07-1.18.15-1.86.21l-2.19.17-2.44.14-2.6.08-2.67,0-2.67,0-2.57-.09-2.4-.14L372.75,2c-.67,0-1.27-.13-1.81-.2l-1.38-.18-.89-.15-.31-.05.33-.06.92-.14,1.44-.18c.56-.07,1.18-.15,1.86-.2L375.1.67l2.44-.13,2.6-.09,2.68,0,2.66,0,2.57.09,2.4.14,2.15.17c.66.05,1.26.13,1.8.2l1.38.18.89.14Z"/><path class="cls-1" d="M443.88,21.43l-.34.05-1,.14-1.47.18c-.56.07-1.2.15-1.9.21l-2.23.17-2.49.14-2.66.08-2.73,0-2.72,0-2.63-.08-2.45-.14L419.12,22c-.68-.05-1.29-.13-1.84-.21l-1.42-.18-.9-.14-.33-.05.34-.06.95-.14,1.47-.18c.56-.07,1.2-.15,1.9-.2l2.24-.18,2.48-.13,2.66-.09,2.73,0,2.72,0,2.63.09,2.45.14,2.19.17c.68,0,1.3.13,1.84.2l1.42.18.91.14Z"/><path class="cls-1" d="M444.29,18.57l-.34.06-.95.14-1.47.17c-.56.08-1.2.16-1.89.21l-2.24.17-2.49.14-2.66.09-2.73,0-2.72,0-2.63-.09-2.45-.13-2.19-.18c-.68,0-1.29-.13-1.84-.2l-1.42-.18-.91-.14-.32-.06.34-.05.95-.15,1.47-.18c.56-.07,1.2-.15,1.9-.2l2.24-.17,2.48-.14,2.66-.09,2.73,0,2.72,0,2.63.08,2.45.14,2.19.17c.68.06,1.3.14,1.84.21l1.42.17.91.15Z"/><path class="cls-1" d="M444.7,15.71l-.34.06-.95.14-1.46.18c-.57.07-1.21.15-1.9.2l-2.24.18-2.49.13-2.66.09-2.73,0-2.72,0-2.63-.09-2.45-.13-2.19-.18c-.68-.05-1.29-.13-1.84-.2l-1.42-.18-.91-.14-.32-.06.34-.05.95-.14,1.47-.18c.56-.07,1.2-.15,1.9-.21l2.24-.17,2.48-.14,2.66-.08,2.73,0,2.72,0,2.63.09L438,15l2.19.18c.68,0,1.3.13,1.84.2l1.42.18.91.14Z"/><path class="cls-1" d="M445.11,12.86l-.34.05-.95.14-1.46.18c-.57.07-1.21.15-1.9.2l-2.24.18-2.49.13-2.66.09-2.73,0-2.72,0L425,13.75l-2.45-.14-2.19-.17c-.68-.06-1.29-.13-1.84-.21l-1.42-.18-.91-.14-.32-.05.34-.06.95-.14,1.47-.18c.56-.07,1.2-.15,1.9-.2l2.24-.18,2.48-.13,2.66-.09,2.73,0,2.72,0L436,12l2.45.13,2.19.18c.68.05,1.3.13,1.84.2l1.42.18.91.14Z"/><path class="cls-1" d="M445.52,10l-.34.05-.95.15-1.46.17c-.57.07-1.21.16-1.9.21l-2.24.17-2.49.14-2.66.09-2.73,0L428,11l-2.63-.09L423,10.75l-2.19-.17c-.68-.05-1.29-.13-1.84-.2l-1.42-.18-.91-.15-.32-.05.34-.06.95-.14L419,9.62c.56-.07,1.2-.15,1.9-.2l2.24-.18,2.48-.13L428.31,9,431,9l2.72,0,2.63.09,2.45.14,2.19.17c.68.05,1.3.13,1.84.21l1.42.17.91.15Z"/><path class="cls-1" d="M445.93,7.14l-.34.06-.95.14-1.46.18c-.57.07-1.21.15-1.9.2L439,7.89,436.55,8l-2.66.09-2.73,0-2.72,0L425.81,8l-2.45-.13-2.19-.18c-.68,0-1.29-.13-1.84-.2l-1.42-.18L417,7.2l-.32-.06.34,0L418,7l1.47-.18c.56-.08,1.2-.15,1.9-.21l2.24-.17,2.48-.14,2.66-.08,2.73,0,2.72,0,2.63.08,2.45.14,2.19.17c.68.06,1.3.14,1.84.21L444.7,7l.91.14Z"/><path class="cls-1" d="M446.34,4.29l-.34,0-.95.14-1.46.18c-.57.07-1.21.15-1.9.2L439.45,5,437,5.17l-2.66.09-2.73,0-2.72,0-2.63-.08L423.77,5l-2.19-.17c-.68-.06-1.29-.14-1.84-.21l-1.42-.18-.91-.14-.32,0,.34-.06.95-.14,1.47-.18c.56-.07,1.2-.15,1.9-.2L424,3.53l2.49-.13,2.65-.09,2.73,0,2.72,0,2.63.09,2.45.13,2.19.18c.68,0,1.3.13,1.84.2l1.42.18.91.14Z"/><path class="cls-1" d="M446.75,1.43l-.34.05-.94.14L444,1.8c-.57.07-1.21.15-1.9.21l-2.24.17-2.49.14-2.66.08-2.73,0-2.72,0-2.63-.09-2.45-.14L422,2c-.68,0-1.29-.13-1.84-.2l-1.42-.18-.91-.15-.32-.05.34-.06,1-.14,1.47-.18c.56-.07,1.2-.15,1.9-.2L424.4.67l2.49-.13,2.65-.09,2.73,0,2.72,0,2.63.09,2.45.14,2.19.17c.68.05,1.3.13,1.85.2l1.41.18.91.14Z"/><path class="cls-1" d="M384.6,90.37l.09-1c.06-.66.16-1.62.27-2.85s.28-2.72.46-4.43.37-3.64.62-5.74.51-4.39.79-6.8.63-5,1-7.59.7-5.35,1.07-8.11.77-5.57,1.16-8.38.83-5.61,1.24-8.37L392.51,29c.42-2.64.83-5.18,1.22-7.59s.79-4.69,1.15-6.8.71-4,1-5.74.58-3.2.81-4.43.42-2.19.55-2.85l.2-1-.09,1c-.06.66-.15,1.62-.27,2.85s-.27,2.72-.45,4.43-.37,3.64-.62,5.74-.51,4.39-.8,6.8-.62,4.95-.95,7.59-.71,5.35-1.08,8.11l-1.16,8.37c-.42,2.81-.83,5.62-1.24,8.38S390,59.32,389.56,62s-.83,5.18-1.22,7.59-.79,4.69-1.15,6.8-.71,4-1,5.74-.59,3.2-.82,4.43-.42,2.19-.55,2.85Z"/><path class="cls-1" d="M387.46,90.37l.09-1c.06-.66.15-1.62.27-2.85s.28-2.72.46-4.43.37-3.64.61-5.74.52-4.39.8-6.8.63-5,1-7.59.7-5.35,1.07-8.11.77-5.57,1.17-8.38.82-5.61,1.23-8.37L395.37,29c.42-2.64.83-5.18,1.22-7.59s.79-4.69,1.15-6.8.71-4,1-5.74.59-3.2.81-4.43.43-2.19.55-2.85l.2-1-.09,1c-.06.66-.15,1.62-.26,2.85s-.28,2.72-.46,4.43-.37,3.64-.62,5.74-.51,4.39-.8,6.8-.62,4.95-1,7.59-.71,5.35-1.08,8.11l-1.16,8.37c-.42,2.81-.83,5.62-1.24,8.38s-.84,5.48-1.25,8.11-.83,5.18-1.22,7.59-.79,4.69-1.15,6.8-.71,4-1,5.74-.59,3.2-.82,4.43-.42,2.19-.55,2.85Z"/><path class="cls-1" d="M390.32,90.37l.09-1c.06-.66.15-1.62.27-2.85s.28-2.72.46-4.43.37-3.64.61-5.74.52-4.39.8-6.8.63-5,1-7.59.7-5.35,1.07-8.11.78-5.57,1.17-8.38.82-5.61,1.23-8.37L398.23,29c.42-2.64.83-5.18,1.22-7.59s.79-4.69,1.15-6.8.71-4,1-5.74.59-3.2.81-4.43.43-2.19.55-2.85l.2-1-.09,1c-.06.66-.15,1.62-.26,2.85s-.28,2.72-.46,4.43-.37,3.64-.62,5.74-.51,4.39-.8,6.8-.62,4.95-.95,7.59-.71,5.35-1.07,8.11l-1.17,8.37c-.41,2.81-.83,5.62-1.24,8.38L395.28,62c-.42,2.63-.83,5.18-1.22,7.59s-.79,4.69-1.15,6.8-.71,4-1,5.74-.58,3.2-.81,4.43-.42,2.19-.55,2.85Z"/><path class="cls-1" d="M393.18,90.37l.09-1c.06-.66.15-1.62.27-2.85s.28-2.72.46-4.43.37-3.64.61-5.74.52-4.39.8-6.8.63-5,1-7.59.7-5.35,1.07-8.11.78-5.57,1.17-8.38.82-5.61,1.23-8.37L401.09,29c.42-2.64.83-5.18,1.22-7.59s.8-4.69,1.15-6.8.71-4,1-5.74.59-3.2.81-4.43l.56-2.85.2-1-.09,1c-.07.66-.16,1.62-.27,2.85s-.28,2.72-.46,4.43-.37,3.64-.62,5.74-.51,4.39-.8,6.8-.62,4.95-.95,7.59-.71,5.35-1.07,8.11l-1.17,8.37c-.41,2.81-.83,5.62-1.24,8.38L398.14,62c-.42,2.63-.83,5.18-1.22,7.59s-.79,4.69-1.15,6.8-.71,4-1,5.74-.58,3.2-.81,4.43-.42,2.19-.55,2.85Z"/><path class="cls-1" d="M396,90.37l.09-1c.06-.66.15-1.62.27-2.85s.28-2.72.45-4.43.38-3.64.62-5.74.52-4.39.8-6.8.63-5,1-7.59.7-5.35,1.07-8.11.78-5.57,1.17-8.38.82-5.61,1.23-8.37L404,29c.42-2.64.84-5.18,1.22-7.59s.8-4.69,1.15-6.8.71-4,1-5.74.59-3.2.82-4.43.42-2.19.55-2.85l.2-1-.09,1c-.06.66-.15,1.62-.27,2.85s-.28,2.72-.45,4.43-.38,3.64-.62,5.74-.52,4.39-.8,6.8-.63,4.95-1,7.59-.71,5.35-1.07,8.11l-1.17,8.37c-.41,2.81-.83,5.62-1.24,8.38L401,62c-.42,2.63-.83,5.18-1.22,7.59s-.79,4.69-1.15,6.8-.71,4-1,5.74-.58,3.2-.81,4.43-.42,2.19-.55,2.85Z"/><path class="cls-1" d="M398.9,90.37l.09-1c.06-.66.15-1.62.27-2.85s.28-2.72.45-4.43.37-3.64.62-5.74.52-4.39.8-6.8.63-5,1-7.59.71-5.35,1.07-8.11.78-5.57,1.17-8.38.82-5.61,1.23-8.37L406.81,29c.43-2.64.84-5.18,1.23-7.59s.79-4.69,1.14-6.8.72-4,1-5.74.59-3.2.82-4.43.42-2.19.55-2.85l.2-1-.09,1c-.06.66-.15,1.62-.27,2.85s-.28,2.72-.45,4.43-.37,3.64-.62,5.74-.52,4.39-.8,6.8-.62,4.95-1,7.59-.71,5.35-1.07,8.11l-1.17,8.37c-.41,2.81-.83,5.62-1.24,8.38s-.84,5.48-1.25,8.11-.83,5.18-1.22,7.59-.79,4.69-1.15,6.8-.71,4-1,5.74-.58,3.2-.81,4.43-.42,2.19-.55,2.85Z"/><path class="cls-1" d="M401.76,90.37l.09-1c.06-.66.15-1.62.27-2.85s.28-2.72.45-4.43.37-3.64.62-5.74.52-4.39.8-6.8.63-5,1-7.59.71-5.35,1.07-8.11.78-5.57,1.17-8.38.83-5.61,1.23-8.37L409.67,29c.43-2.64.84-5.18,1.23-7.59s.79-4.69,1.15-6.8.71-4,1-5.74.59-3.2.82-4.43.42-2.19.55-2.85l.2-1-.09,1c-.06.66-.15,1.62-.27,2.85s-.28,2.72-.45,4.43-.37,3.64-.62,5.74-.52,4.39-.8,6.8-.62,4.95-1,7.59-.71,5.35-1.08,8.11l-1.17,8.37c-.41,2.81-.83,5.62-1.24,8.38L406.72,62c-.42,2.63-.83,5.18-1.22,7.59s-.79,4.69-1.15,6.8-.71,4-1,5.74-.58,3.2-.81,4.43-.42,2.19-.55,2.85Z"/><path class="cls-1" d="M404.62,90.37l.09-1c.06-.66.15-1.62.27-2.85s.28-2.72.45-4.43.37-3.64.62-5.74.52-4.39.8-6.8.63-5,1-7.59.71-5.35,1.07-8.11.78-5.57,1.17-8.38.83-5.61,1.23-8.37L412.53,29c.43-2.64.84-5.18,1.23-7.59s.79-4.69,1.15-6.8.71-4,1-5.74.58-3.2.81-4.43.42-2.19.55-2.85l.2-1-.09,1c-.06.66-.15,1.62-.27,2.85s-.27,2.72-.45,4.43-.37,3.64-.62,5.74-.52,4.39-.8,6.8-.62,4.95-.95,7.59-.71,5.35-1.08,8.11l-1.17,8.37c-.41,2.81-.83,5.62-1.23,8.38L409.58,62c-.42,2.63-.83,5.18-1.22,7.59s-.79,4.69-1.15,6.8-.71,4-1,5.74-.59,3.2-.81,4.43-.42,2.19-.55,2.85Z"/><path class="cls-1" d="M455.05.57s.51.65,1.38,1.81,2.11,2.83,3.53,4.87c.72,1,1.49,2.11,2.29,3.3s1.65,2.41,2.5,3.71,1.74,2.64,2.63,4L470,22.45c.87,1.41,1.75,2.82,2.6,4.21s1.68,2.78,2.47,4.12,1.55,2.65,2.26,3.89,1.38,2.42,2,3.51c1.21,2.18,2.19,4,2.86,5.33s1,2.05,1,2.05-.52-.64-1.39-1.81-2.1-2.83-3.52-4.86c-.72-1-1.49-2.12-2.29-3.3s-1.65-2.42-2.5-3.72-1.74-2.63-2.62-4l-2.66-4.18-2.6-4.21c-.85-1.4-1.68-2.78-2.47-4.12s-1.54-2.65-2.26-3.89S459.55,9,458.94,8c-1.21-2.18-2.19-4-2.86-5.33S455.05.57,455.05.57Z"/><path class="cls-1" d="M458.58.57s.51.65,1.36,1.81,2.06,2.83,3.45,4.86c.7,1,1.46,2.12,2.24,3.3s1.62,2.42,2.45,3.71,1.7,2.64,2.57,4l2.59,4.18c.85,1.41,1.71,2.82,2.54,4.21s1.64,2.77,2.42,4.11,1.5,2.64,2.2,3.88,1.34,2.42,1.92,3.51c1.19,2.18,2.13,4,2.79,5.32s1,2.05,1,2.05-.51-.65-1.36-1.81-2.06-2.83-3.45-4.86c-.7-1-1.46-2.12-2.24-3.3s-1.62-2.41-2.45-3.71-1.7-2.64-2.56-4l-2.6-4.17-2.54-4.22c-.83-1.39-1.64-2.77-2.41-4.11s-1.5-2.64-2.2-3.88S463,9,462.37,7.94c-1.19-2.18-2.13-4-2.78-5.32S458.58.57,458.58.57Z"/><path class="cls-1" d="M462.11.57s.5.65,1.33,1.81,2,2.83,3.38,4.87c.69,1,1.43,2.12,2.19,3.3s1.58,2.42,2.4,3.72,1.66,2.64,2.5,4l2.54,4.18,2.48,4.21c.81,1.39,1.6,2.77,2.35,4.11s1.47,2.65,2.14,3.89,1.31,2.41,1.88,3.5c1.16,2.18,2.07,4,2.71,5.33s1,2,1,2-.5-.65-1.33-1.81-2-2.84-3.38-4.87c-.69-1-1.43-2.12-2.19-3.3s-1.58-2.42-2.39-3.72-1.67-2.64-2.51-4l-2.53-4.18-2.48-4.21c-.81-1.4-1.6-2.78-2.35-4.12s-1.47-2.64-2.14-3.88S466.37,9,465.8,7.94c-1.16-2.18-2.08-4-2.71-5.32S462.11.57,462.11.57Z"/><path class="cls-1" d="M465.64.57s.49.65,1.31,1.82,2,2.84,3.3,4.88c.67,1,1.4,2.13,2.14,3.31s1.55,2.42,2.34,3.73,1.63,2.64,2.45,4l2.47,4.18,2.42,4.22q1.19,2.1,2.29,4.13c.74,1.34,1.43,2.65,2.08,3.89s1.27,2.42,1.83,3.51c1.12,2.18,2,4,2.63,5.33s.94,2,.94,2-.48-.65-1.3-1.81-2-2.84-3.31-4.89c-.67-1-1.39-2.12-2.14-3.31s-1.54-2.42-2.34-3.72-1.62-2.65-2.44-4l-2.47-4.19-2.41-4.22c-.8-1.4-1.56-2.78-2.3-4.12s-1.42-2.66-2.08-3.9S469.78,9,469.22,8c-1.12-2.18-2-4-2.63-5.33S465.64.57,465.64.57Z"/><path class="cls-1" d="M469.17.57s.48.65,1.28,1.81,1.93,2.84,3.24,4.88c.65,1,1.36,2.12,2.09,3.3s1.51,2.42,2.29,3.72,1.58,2.64,2.38,4,1.61,2.78,2.41,4.18l2.36,4.21c.77,1.39,1.52,2.77,2.24,4.11s1.39,2.65,2,3.89,1.23,2.41,1.77,3.5c1.1,2.18,2,4,2.56,5.31s.92,2,.92,2-.48-.65-1.28-1.81-1.93-2.84-3.24-4.88c-.66-1-1.36-2.12-2.09-3.3s-1.51-2.42-2.29-3.72-1.58-2.64-2.38-4l-2.41-4.18-2.36-4.21c-.77-1.39-1.52-2.77-2.23-4.11s-1.39-2.65-2-3.88S473.19,9,472.65,7.93c-1.09-2.18-2-4-2.56-5.31S469.17.57,469.17.57Z"/><path class="cls-1" d="M472.7.57s.47.65,1.26,1.82,1.88,2.84,3.16,4.88c.64,1,1.33,2.12,2,3.3s1.47,2.42,2.23,3.72,1.55,2.64,2.33,4l2.35,4.18,2.3,4.21c.75,1.39,1.47,2.77,2.17,4.11s1.35,2.65,2,3.88,1.2,2.42,1.72,3.51c1.06,2.17,1.9,4,2.48,5.31s.89,2,.89,2-.47-.65-1.25-1.82-1.89-2.84-3.16-4.88c-.65-1-1.34-2.12-2.05-3.3s-1.47-2.42-2.23-3.72-1.54-2.64-2.32-4S485,25,484.25,23.64L482,19.42c-.75-1.39-1.48-2.77-2.17-4.11s-1.35-2.64-2-3.88-1.2-2.41-1.73-3.5c-1.06-2.18-1.9-4-2.48-5.31S472.7.57,472.7.57Z"/><path class="cls-1" d="M476.23.57s.46.65,1.23,1.82,1.85,2.84,3.09,4.88c.63,1,1.3,2.12,2,3.3S484,13,484.72,14.29s1.51,2.64,2.27,4,1.52,2.77,2.29,4.17l2.24,4.21c.73,1.39,1.43,2.77,2.11,4.11s1.31,2.64,1.92,3.88,1.17,2.41,1.68,3.5c1,2.18,1.84,4,2.4,5.31s.86,2,.86,2-.46-.66-1.23-1.82-1.84-2.84-3.09-4.88c-.62-1-1.3-2.13-2-3.31s-1.44-2.42-2.18-3.72-1.51-2.64-2.26-4-1.53-2.78-2.29-4.18l-2.24-4.21c-.73-1.39-1.43-2.77-2.11-4.11s-1.31-2.64-1.92-3.88S480,9,479.5,7.92c-1-2.17-1.84-4-2.4-5.31S476.23.57,476.23.57Z"/><path class="cls-1" d="M479.77.57s.44.65,1.19,1.82,1.81,2.85,3,4.9c.61,1,1.27,2.13,1.94,3.31s1.41,2.43,2.13,3.73,1.46,2.65,2.2,4,1.49,2.79,2.23,4.19l2.17,4.22c.72,1.39,1.4,2.77,2.06,4.12s1.27,2.64,1.86,3.88,1.13,2.42,1.63,3.51c1,2.18,1.78,4,2.32,5.31s.83,2.05.83,2.05-.45-.65-1.2-1.82-1.8-2.85-3-4.9c-.61-1-1.27-2.13-1.95-3.31s-1.4-2.43-2.12-3.73-1.47-2.65-2.2-4-1.49-2.79-2.23-4.19l-2.17-4.22c-.71-1.4-1.4-2.78-2.06-4.12s-1.27-2.65-1.86-3.88S483.42,9,482.93,7.93c-1-2.18-1.79-4-2.33-5.31S479.77.57,479.77.57Z"/><path class="cls-1" d="M544.55.57s-.58.75-1.63,2.05S540.37,5.77,538.53,8c-.92,1.09-1.91,2.28-3,3.51s-2.19,2.55-3.37,3.89-2.4,2.72-3.65,4.12l-3.81,4.21-3.86,4.18c-1.27,1.38-2.54,2.72-3.77,4s-2.43,2.54-3.57,3.72-2.23,2.28-3.24,3.3c-2,2-3.72,3.7-4.92,4.86s-1.91,1.81-1.91,1.81.58-.75,1.63-2.05,2.54-3.15,4.38-5.33c.92-1.09,1.92-2.28,3-3.51s2.19-2.55,3.37-3.89,2.4-2.72,3.66-4.12l3.81-4.21,3.85-4.18c1.28-1.37,2.55-2.71,3.78-4s2.43-2.54,3.57-3.71,2.23-2.29,3.24-3.3c2-2,3.72-3.71,4.92-4.87S544.55.57,544.55.57Z"/><path class="cls-1" d="M541,.57s-.54.72-1.52,2-2.37,3-4.09,5.08c-.86,1-1.79,2.17-2.79,3.35s-2,2.43-3.16,3.7-2.24,2.6-3.41,3.93l-3.57,4-3.62,4c-1.19,1.31-2.38,2.59-3.54,3.82S513,32.81,512,33.93s-2.09,2.18-3,3.14C507,39,505.43,40.6,504.3,41.7s-1.8,1.72-1.8,1.72.54-.72,1.51-2,2.37-3,4.09-5.09c.86-1,1.79-2.17,2.79-3.34s2.05-2.43,3.16-3.71,2.24-2.59,3.42-3.92,2.37-2.67,3.57-4l3.61-4c1.2-1.31,2.39-2.59,3.54-3.82s2.29-2.42,3.36-3.54,2.09-2.17,3-3.13c1.89-1.94,3.5-3.53,4.63-4.63S541,.57,541,.57Z"/><path class="cls-1" d="M537.49.57s-.5.69-1.4,1.86-2.2,2.86-3.8,4.83c-.8,1-1.66,2.07-2.6,3.18s-1.9,2.31-2.93,3.52-2.09,2.46-3.18,3.72l-3.33,3.81-3.37,3.78c-1.12,1.24-2.23,2.45-3.31,3.62s-2.13,2.29-3.13,3.35-2,2-2.85,3c-1.77,1.83-3.27,3.33-4.34,4.38s-1.69,1.63-1.69,1.63.5-.69,1.4-1.87,2.2-2.86,3.8-4.83c.79-1,1.66-2.06,2.59-3.18s1.9-2.31,2.93-3.52,2.09-2.46,3.19-3.72l3.33-3.81,3.37-3.77c1.12-1.24,2.23-2.45,3.3-3.62s2.14-2.29,3.14-3.35,2-2.06,2.85-3c1.77-1.84,3.27-3.34,4.34-4.38S537.49.57,537.49.57Z"/><path class="cls-1" d="M534,.57s-.45.65-1.29,1.77-2,2.71-3.51,4.59c-.74.94-1.54,2-2.41,3S525,12.14,524,13.29s-1.94,2.33-3,3.53-2,2.4-3.09,3.61-2.1,2.41-3.14,3.58-2.08,2.32-3.09,3.43-2,2.17-2.92,3.17-1.83,2-2.66,2.82c-1.65,1.74-3.07,3.16-4.06,4.14s-1.59,1.54-1.59,1.54.46-.65,1.29-1.77,2-2.71,3.52-4.59c.73-.94,1.53-2,2.4-3s1.77-2.19,2.72-3.34,1.94-2.34,3-3.53,2.06-2.4,3.1-3.61,2.09-2.41,3.14-3.58,2.07-2.32,3.08-3.43,2-2.17,2.93-3.17,1.83-1.95,2.66-2.82c1.65-1.74,3.07-3.16,4.06-4.14S534,.57,534,.57Z"/><path class="cls-1" d="M530.42.57s-.42.61-1.18,1.67S527.37,4.79,526,6.56c-.68.88-1.42,1.84-2.22,2.84s-1.63,2.06-2.51,3.14-1.8,2.19-2.74,3.32-1.9,2.26-2.87,3.39-1.94,2.26-2.91,3.36-1.92,2.18-2.86,3.22-1.85,2-2.72,3-1.69,1.83-2.47,2.64c-1.54,1.63-2.85,3-3.78,3.88s-1.48,1.44-1.48,1.44.42-.62,1.18-1.67,1.87-2.56,3.23-4.32c.68-.89,1.42-1.85,2.22-2.84s1.63-2.06,2.51-3.14,1.8-2.2,2.74-3.32,1.9-2.26,2.86-3.39,1.95-2.26,2.92-3.36S519,12.54,520,11.5s1.85-2,2.72-3,1.7-1.83,2.47-2.64C526.7,4.26,528,2.93,529,2S530.42.57,530.42.57Z"/><path class="cls-1" d="M526.89.57s-.38.58-1.07,1.57-1.7,2.39-3,4.05c-.62.82-1.29,1.72-2,2.66s-1.49,1.93-2.3,2.94-1.65,2.05-2.51,3.1-1.75,2.11-2.63,3.17-1.79,2.12-2.68,3.14-1.77,2-2.63,3-1.71,1.9-2.51,2.78-1.57,1.7-2.28,2.46c-1.42,1.52-2.64,2.76-3.5,3.62s-1.38,1.33-1.38,1.33.38-.57,1.08-1.56,1.7-2.4,2.94-4.05c.62-.83,1.29-1.73,2-2.66s1.49-1.93,2.29-2.94,1.65-2.06,2.51-3.11S511,18,511.91,16.91s1.79-2.11,2.68-3.14,1.77-2,2.64-3,1.7-1.89,2.51-2.77S521.3,6.28,522,5.52c1.42-1.51,2.64-2.75,3.5-3.61S526.89.57,526.89.57Z"/><path class="cls-1" d="M523.36.57s-.34.54-1,1.47-1.54,2.24-2.67,3.79c-2.24,3.11-5.38,7.15-8.63,11.1s-6.64,7.8-9.28,10.61c-1.31,1.42-2.44,2.57-3.23,3.37s-1.27,1.24-1.27,1.24.34-.54,1-1.47,1.54-2.24,2.67-3.79c2.24-3.11,5.38-7.15,8.64-11.1s6.63-7.8,9.28-10.61c1.31-1.42,2.43-2.57,3.23-3.37S523.36.57,523.36.57Z"/><path class="cls-1" d="M519.83.57s-.3.5-.87,1.37-1.38,2.08-2.4,3.52c-2,2.9-4.86,6.65-7.82,10.31s-6,7.23-8.47,9.82c-1.2,1.31-2.23,2.37-3,3.11s-1.17,1.15-1.17,1.15.31-.51.87-1.37,1.38-2.09,2.4-3.53c2-2.89,4.86-6.64,7.82-10.3s6-7.23,8.47-9.83c1.2-1.3,2.24-2.37,3-3.1S519.83.57,519.83.57Z"/><path class="cls-1" d="M503.25,45.63s0,.18,0,.51l-.06,1.42c0,.62-.09,1.36-.14,2.22s-.11,1.82-.21,2.87-.2,2.19-.32,3.4-.26,2.48-.4,3.79-.33,2.68-.5,4.06-.38,2.78-.57,4.19-.42,2.81-.63,4.19-.45,2.74-.67,4-.47,2.59-.68,3.8-.46,2.34-.66,3.4-.43,2-.62,2.87-.36,1.6-.5,2.21L496.92,90l-.12.5s0-.17,0-.5,0-.81.07-1.43.08-1.35.14-2.21.11-1.82.2-2.87.21-2.2.32-3.4.27-2.48.41-3.8.33-2.67.49-4,.38-2.79.57-4.19.43-2.81.64-4.19.45-2.74.67-4.06.46-2.59.68-3.79.46-2.35.66-3.4.43-2,.62-2.87.36-1.6.5-2.22l.34-1.42Z"/><path class="cls-1" d="M500.39,45.63l0,.51-.06,1.42c0,.62-.09,1.36-.14,2.22s-.11,1.82-.21,2.87-.2,2.19-.31,3.4-.27,2.48-.41,3.79-.33,2.68-.5,4.06-.37,2.78-.56,4.19-.43,2.81-.64,4.19-.45,2.74-.67,4-.46,2.59-.68,3.8-.46,2.34-.66,3.4-.42,2-.62,2.87-.36,1.6-.5,2.21-.26,1.1-.34,1.43-.13.5-.13.5,0-.17,0-.5,0-.81.06-1.43.08-1.35.14-2.21.11-1.82.21-2.87.2-2.2.31-3.4.27-2.48.41-3.8.33-2.67.5-4,.37-2.79.56-4.19.43-2.81.64-4.19.45-2.74.67-4.06.47-2.59.68-3.79.46-2.35.66-3.4.43-2,.62-2.87.36-1.6.5-2.22.26-1.1.34-1.42Z"/><path class="cls-1" d="M497.53,45.63s0,.18,0,.51l-.07,1.42c0,.62-.08,1.36-.14,2.22s-.11,1.82-.21,2.87-.2,2.19-.31,3.4-.27,2.48-.41,3.79-.33,2.68-.5,4.06-.37,2.78-.56,4.19-.43,2.81-.64,4.19-.45,2.74-.67,4-.46,2.59-.68,3.8-.45,2.34-.66,3.4-.42,2-.62,2.87-.36,1.6-.49,2.21L491.21,90c-.08.33-.13.5-.13.5s0-.17,0-.5,0-.81.06-1.43.09-1.35.14-2.21.11-1.82.21-2.87.2-2.2.31-3.4.27-2.48.41-3.8.33-2.67.5-4,.38-2.79.57-4.19.42-2.81.63-4.19.46-2.74.67-4.06.47-2.59.68-3.79.46-2.35.67-3.4.42-2,.61-2.87.36-1.6.5-2.22l.35-1.42Z"/><path class="cls-1" d="M494.67,45.63v.51l-.07,1.42c0,.62-.08,1.36-.14,2.22s-.11,1.82-.2,2.87-.21,2.19-.32,3.4-.27,2.48-.41,3.79-.32,2.68-.49,4.06-.38,2.78-.57,4.19-.42,2.81-.63,4.19-.46,2.74-.67,4-.47,2.59-.68,3.8-.46,2.34-.67,3.4-.42,2-.61,2.87-.36,1.6-.5,2.21L488.35,90l-.12.5s0-.17,0-.5,0-.81.07-1.43.08-1.35.13-2.21.11-1.82.21-2.87.21-2.2.32-3.4.26-2.48.41-3.8.32-2.67.49-4,.38-2.79.57-4.19.43-2.81.64-4.19.45-2.74.67-4.06.46-2.59.68-3.79.45-2.35.66-3.4.42-2,.62-2.87.35-1.6.49-2.22l.35-1.42Z"/><path class="cls-1" d="M491.82,45.63s0,.18,0,.51l-.06,1.42c0,.62-.09,1.36-.14,2.22s-.11,1.82-.21,2.87-.21,2.19-.32,3.4-.26,2.48-.41,3.79-.32,2.68-.49,4.06-.38,2.78-.57,4.19-.42,2.81-.63,4.19-.45,2.74-.67,4-.46,2.59-.68,3.8-.46,2.34-.66,3.4-.43,2-.62,2.87-.36,1.6-.5,2.21-.26,1.1-.34,1.43-.13.5-.13.5,0-.17,0-.5,0-.81.06-1.43.08-1.35.14-2.21.11-1.82.21-2.87.2-2.2.31-3.4.27-2.48.41-3.8.33-2.67.49-4,.38-2.79.57-4.19.43-2.81.64-4.19.45-2.74.67-4.06.46-2.59.68-3.79.46-2.35.66-3.4.42-2,.62-2.87.36-1.6.49-2.22l.35-1.42Z"/><path class="cls-1" d="M489,45.63l0,.51-.06,1.42c0,.62-.09,1.36-.14,2.22s-.11,1.82-.21,2.87-.2,2.19-.31,3.4-.27,2.48-.41,3.79-.33,2.68-.5,4.06-.37,2.78-.56,4.19-.43,2.81-.64,4.19-.45,2.74-.67,4-.46,2.59-.68,3.8-.46,2.34-.66,3.4-.42,2-.62,2.87-.36,1.6-.49,2.21L482.64,90c-.08.33-.13.5-.13.5s0-.17,0-.5,0-.81.06-1.43.09-1.35.14-2.21.11-1.82.21-2.87.2-2.2.31-3.4.27-2.48.41-3.8.33-2.67.5-4,.37-2.79.56-4.19.43-2.81.64-4.19.45-2.74.67-4.06.46-2.59.68-3.79.46-2.35.66-3.4.43-2,.62-2.87.36-1.6.5-2.22.26-1.1.34-1.42Z"/><path class="cls-1" d="M486.1,45.63s0,.18,0,.51L486,47.56c0,.62-.09,1.36-.14,2.22s-.11,1.82-.21,2.87-.2,2.19-.31,3.4-.27,2.48-.41,3.79-.33,2.68-.5,4.06-.37,2.78-.56,4.19-.43,2.81-.64,4.19-.45,2.74-.67,4-.46,2.59-.68,3.8-.45,2.34-.66,3.4-.42,2-.61,2.87-.36,1.6-.5,2.21L479.78,90c-.08.33-.13.5-.13.5s0-.17,0-.5,0-.81.06-1.43.09-1.35.14-2.21.11-1.82.21-2.87.2-2.2.31-3.4.27-2.48.41-3.8.33-2.67.5-4,.38-2.79.57-4.19.42-2.81.63-4.19.46-2.74.67-4.06.47-2.59.68-3.79.46-2.35.67-3.4.42-2,.61-2.87.36-1.6.5-2.22l.34-1.42Z"/><path class="cls-1" d="M483.24,45.63v.51l-.07,1.42c0,.62-.08,1.36-.14,2.22s-.11,1.82-.21,2.87-.2,2.19-.31,3.4-.27,2.48-.41,3.79-.32,2.68-.49,4.06-.38,2.78-.57,4.19-.42,2.81-.63,4.19-.46,2.74-.67,4-.47,2.59-.68,3.8-.46,2.34-.66,3.4-.43,2-.62,2.87-.36,1.6-.5,2.21-.26,1.1-.34,1.43-.13.5-.13.5,0-.17,0-.5,0-.81.06-1.43.08-1.35.14-2.21.11-1.82.2-2.87.21-2.2.32-3.4.26-2.48.41-3.8.32-2.67.49-4,.38-2.79.57-4.19.43-2.81.64-4.19.45-2.74.67-4.06.46-2.59.68-3.79.45-2.35.66-3.4.42-2,.61-2.87.36-1.6.5-2.22l.35-1.42Z"/></g></g></svg>